<?xml version="1.0" encoding="UTF-8"?>
<svg id="Layer_1" data-name="Layer 1" xmlns="http://www.w3.org/2000/svg" viewBox="0 0 1901.48 884.9">
  <path d="m740.66,231.4c-.89-1.01-2.21-2.43-3.87-3.92-.24.33-.5.66-.82.97-6.14,6.12-14.61,8.58-20.82,14.38-5.59,5.21-5.48,13.31-9.21,19.61-4,6.75-11.33,9.4-18.92,8.68-6.11-.58-11.11-3.23-14.86-7.34-25.45,38.32-53.05,93.05-77.44,153.72,3.9-.4,7.7.07,11.68,1.18,5.19,1.46,9.43,3.36,14.98,2.37,8.79-1.56,16.33-6.52,24.79-6.19,22.28-55.5,52.3-102.18,72.51-123.8l.15-.17c7.59-8.67,13.55-14.07,18.34-18.41,7.4-6.7,12.74-11.55,12.86-20.47.08-6.09-3.42-13.8-9.37-20.61Z"/>
  <path d="m442.46,207.87c-27.16-27.58-66.45-42.5-113.63-43.14-73.25-.99-155.29,26.23-219.4,72.82-32.86,23.89-59.08,51.17-77.92,81.08C11.08,351.07.48,384.93.01,419.28c-.48,35.49,11.65,65,35.08,85.37,19.99,17.37,47.14,27.15,76.44,27.55,1.65.02,3.3.02,4.95-.01,45.37-.8,89.21-21.08,123.94-57.46,33.11-34.68,53.21-80.27,53.78-121.94.5-36.43-8.41-60.1-22.68-60.29-5.01-.06-10.69,2.62-15.43,7.39-4.73,4.75-7.48,10.51-7.55,15.79-.1,7.21,2.55,12.82,5.36,18.76,3.86,8.18,8.24,17.45,8,35.32-.37,27.1-17.18,62.14-42.82,89.28-30.09,31.84-67.6,49.11-105.56,48.58-23.18-.31-44.61-8.01-60.34-21.68-17.99-15.62-27.3-38.26-26.93-65.47.43-31.76,13.74-94,98.05-153.97,54.48-38.75,123.46-63.34,175.79-62.62,44.38.6,75.27,12.38,94.44,36.01,18.77,23.13,27.55,59,26.86,109.65-.45,32.73-6.82,76.14-16.31,112.43-.05.01,8.28-4.32,17.32-2.26,4.5,1.03,9.22,1.08,13.51-1,2.64-1.28,4.98-3.24,7.36-4.94,5.31-3.79,11.09-7.04,17.84-6.72,1.79.09,3.49.41,5.13.89,6.4-23.22,17.73-85.93,18.18-119.11.69-50.55-13.83-92.38-41.98-120.96Z"/>
  <path d="m179.58,794.96c115.85-31.66,222.34-166.56,272.52-304.55-7.12-1.73-10.78-.51-13.83,1.01-4.36,2.18-16.36,12-24.45,10.46-9.77-1.86-14.84.56-20.94,2.56-23.68,68.04-59.75,130.24-100.4,178.67-30.41,36.24-75.94,78.05-131.73,91.44,0,0,0,.01,0,.02.99,3.82,6.15,7.25,9.11,9.97,5.97,5.51,7.61,10.98,9.71,10.4"/>
  <path d="m769.24,476.7c-5.09-3.51-10.24-6.34-15.83-8.31-8.16,4.78-16.18,10.55-23.65,17.19-25.89,23.01-40.36,51.02-40.74,78.88-.19,14.35,3.48,26.74,10.58,36.82-13.2,4.56-27.3,7.65-42.61,7.43-15.45-.21-26.86-4.9-33.91-13.94-7.1-9.1-8.46-20.61-8.35-28.65.38-27.85,3.74-68.27,16.83-109.89-10.67-3.15-20.35,2.64-31.51,4.7-8.22,1.51-15.15-.31-19.8-5.9-.08.07-.17.13-.25.19-15.23,43.66-22.6,79.01-23.02,110.11-.28,20.9,6.79,38.62,20.46,51.24,13.65,12.6,33.29,19.43,56.8,19.75,26.63.36,54.71-6.21,85.68-20.04-.56-4.48,1.45-9.13,2.55-11.72,1.67-3.96,6.04-8.16,10.72-10.43,8.39-4.08,12.65-8.1,17.14-13.98-.07-.43-23.75-45.72,34.53-84.58-1.88-8.68-7.82-13.5-15.61-18.87Z"/>
  <path d="m1085.85,485.61c-.41,0-9.7-1.72-19.84,2.13-3.28,1.24-10.75,6.82-21.45,13.89-5.88,3.89-14.19,6.24-21.24,11.21-6.4,4.52-10.34,14.39-17.11,19.35-6.47,4.74-15.78,4.56-22.11,9.32-5.87,4.42-8.94,12.16-14.28,16.29-6.6,5.1-16.77,6.06-21.93,10.21-10.39,8.38-15.63,14.69-15.75,15.82-1.68,16.01,7.78,28.91,13.57,34.46,6.8,6.51,15.99,10.47,24.58,10.59,8,.07,16.12-6.28,16.31-20.79.24-17.93,12.4-40.1,33.36-60.84,19.39-19.18,38.78-29.57,47.56-29.83.09.12.19.31.19.55-.15,10.68-23.33,27.19-38.67,38.12-6.29,4.48-11.42,8.18-15.47,11.45,4.46-.55,8.95-.06,13.11,2.25,6.41,3.57,8.9,10.37,10.68,17.05,1.1,4.12,4.05,10.02,9.05,12.16,1.35.58,2.73-.72,2.19-2.08-2-5.05-3.22-10.02-3.5-14.6,2.61-1.79,8.09-4.86,12.67-7.41,22.87-12.77,57.43-32.08,57.75-55.46.1-7.36-2.83-15.6-7.85-22.05-5.84-7.5-13.58-11.69-21.82-11.8Z"/>
  <path d="m976.88,492.76c6.81-6.4,14.6-6.71,23.22-8.8,1.39-.34,2.65-.26,3.76.09.32-.63.73-1.21,1.21-1.71,33.06-94.76,98.38-173.69,117.63-174.03.06,0,9.21-1.7,21.86,10.26,3.17,3,8.42.85,8.55-3.51,0-.25.01-.5.02-.74.12-9.07-3.28-19.01-9.11-26.59-6.82-8.87-16.15-13.83-26.28-13.97-.44,0-.87,0-1.31,0-32.9.58-77.18,39.55-115.99,102.2-27.89,45.02-48.05,94.19-58.66,141.65,6.27-1.71,12.86-1.65,18.29-6.21,6.51-5.47,10.68-12.89,16.79-18.63Z"/>
  <path d="m1417.4,539.93l-5.41,4.92c-24.76,22.52-63.51,48.71-91.3,48.31-19.82-.27-21.98-10.08-21.88-17.43.21-15.2,5.12-24.82,14.11-37.21,4.75-6.16,9.8-13.66,9.95-24.66.09-6.4-2.63-12.21-7.64-16.37-4.41-3.65-10.23-5.71-16.39-5.8-13.27-.13-23.2,10.72-43.01,32.52-43.77,49.83-73.09,66.07-78.49,66.17h-.08c-1.76-.02-3.03-.97-3.01-2.25.17-12.6,11.26-27.54,21.98-41.98,11.81-15.91,22.97-30.94,23.17-46.14.12-9.24-4.28-18.02-12.4-24.73-6.84-5.66-15.47-9.09-23.07-9.2-9.13-.11-15.33,9.37-15.45,18.31-.27,19.64-13.38,36.86-26.06,53.5-12.64,16.59-25.71,33.75-25.98,53.6-.13,9.68,3.5,18.59,10.24,25.08,6.24,6.02,14.83,9.54,23.57,9.65.43,0,.86,0,1.3,0,24.8-.44,60.82-22.71,99.19-60.83-.32,2.96-.51,5.93-.55,8.85-.2,14.61,4.81,26.82,14.49,35.31,8.79,7.71,20.86,11.89,34.9,12.08,39.35.54,79.34-19.01,125.82-61.53l4.8-4.39-12.78-15.77Z"/>
  <path d="m1734.12,544.31l-5.42,5.04c-23.07,21.46-55.51,49.89-71.77,50.18-.14,0-.29,0-.43,0-15.67-.21-20.38-5.64-20.14-23.21.07-5.37,1.05-11.72,2.08-18.43,1.19-7.8,2.55-16.63,2.67-25.45.3-22.21-13.44-30.31-26.4-30.49-14.35-.19-31.13,12.07-53.43,35.44,4.23-9.58,7.04-18.23,7.14-25.84.12-8.53-2.96-16.45-8.66-22.31-5.57-5.73-13.04-8.94-21.04-9.05-23.4-.34-52.18,22.6-82.34,54.34,5.92-10.73,10-20.3,10.11-28.51.18-13.28-14.56-30.33-31.37-30.56-15.56-.26-18.24,14.05-19.51,21.09-3.63,15.33-14.66,33.44-25.32,50.95-12.5,20.53-23.29,38.26-23.48,52.53-.23,16.78,12.99,31.14,28.87,31.35,11.74.13,16.49-6.49,24.35-17.52,2.48-3.48,5.29-7.42,8.92-12.12,15.01-19.18,35.65-42.33,53.87-60.41,27.98-27.77,37.52-31.29,39.43-31.73.02.13.03.29.03.48-.11,7.7-11.54,31.87-27.21,57.51-.7,1.16-1.35,2.23-1.96,3.23-4.83,7.93-7.49,12.3-7.6,20.03-.17,12.91,9.46,23.71,21.97,25.3l3.79.19c12.01-.29,18.79-9.07,24.78-16.84,1.52-1.98,3.1-4.02,4.83-6.04,19.06-22.94,47.27-56.87,58.2-60.9-.23,9.24-2.4,18.26-4.7,27.78-2.5,10.37-5.09,21.09-5.24,32.75-.35,26,15.56,41.12,43.67,41.51.5,0,.99,0,1.49,0,31.89-.56,67.14-32.8,107.86-70.05l4.8-4.39-12.84-15.83Z"/>
  <path d="m1892.22,585.31h-.01c-3.8-.01-7.01,1.79-9.68,3.52l-.18.12c-4.54,3.15-9.37,6.01-14.31,5.98-8.93-.12-15.49-12.49-17.56-33.07-1.08-11.05-2.7-27.75-18.93-27.97-11.33-.17-17.56,8.91-23.62,17.68-2.17,3.14-4.42,6.39-6.93,9.27-24.1,28.13-47.34,45.36-54.71,48.52,1.31-12.67,15.65-35.5,35.66-56.56,21.38-22.5,44.11-37.53,56.49-37.34,7.64.1,10.46,4.63,11.49,8.41l.17.62.28.58c1.8,3.74,4.28,8.85,11.03,8.94,3.15.05,6.33-1.29,8.77-3.67,2.61-2.54,4.07-5.99,4.13-9.7.13-9.37-10.79-35.25-47.06-35.75-23.35-.34-55.06,16.79-84.72,45.77-22.72,22.2-47.13,55.43-47.5,82.08-.22,15.88,13.02,29.48,28.9,29.69.34,0,.68,0,1.03,0,12.44-.22,27.99-7.4,46.24-21.36,13.98-10.69,27.19-23.49,37.61-34.49,9.62,36.38,29.05,42.47,40.52,42.63,16.41.26,34.84-11.41,45.93-23.06,4.14-4.05,6.18-7.76,6.23-11.34.07-5.61-4.73-9.45-9.26-9.52Z"/>
  <path d="m898.5,222.87c-2.15-1.59-4.13-3.44-5.87-5.51l-13.37,11.28c1.74,2.07,3.23,4.33,4.44,6.72,1-3.17,2.87-6.1,5.59-8.39,2.72-2.3,5.93-3.65,9.22-4.1Z"/>
  <path d="m796.03,511.78c.4,2.65.5,5.35.28,8.05l17.43,1.44c.22-2.7.76-5.34,1.59-7.89-2.94,1.54-6.34,2.29-9.88,2-3.55-.29-6.78-1.59-9.42-3.6Z"/>
  <g>
    <path d="m541.25,796.13c-2.44,1.12-5,1.96-7.66,2.48s-5.35.74-8.02.64c2.29,2.4,3.95,5.46,4.65,8.95.7,3.49.34,6.95-.86,10.05,2.44-1.12,5-1.96,7.66-2.48,2.65-.53,5.35-.74,8.02-.64-2.29-2.4-3.95-5.46-4.65-8.95s-.34-6.95.86-10.05Z"/>
    <path d="m617.06,781.02c2.68.1,5.37-.11,8.02-.64l3.42,17.16c-2.65.53-5.22,1.37-7.66,2.48,1.2-3.1,1.56-6.56.86-10.05-.7-3.49-2.36-6.55-4.65-8.95Z"/>
    <path d="m449.75,814.37c-2.44,1.12-5,1.96-7.66,2.48s-5.35.74-8.02.64c2.29,2.4,3.95,5.46,4.65,8.95s.34,6.95-.86,10.05c2.44-1.12,5-1.96,7.66-2.48,2.65-.53,5.35-.74,8.02-.64-2.29-2.4-3.95-5.46-4.65-8.95-.7-3.49-.34-6.95.86-10.05Z"/>
    <path d="m358.88,831.3c-2.52.91-5.15,1.53-7.84,1.83l1.97,17.38c2.69-.3,5.39-.29,8.05.03-2.08-2.58-3.48-5.77-3.88-9.31s.25-6.96,1.7-9.94Z"/>
    <path d="m601.07,779.22c-2.41.48-4.57,1.53-6.35,2.99-4.46,3.64-9.73,6.16-15.38,7.29-2.82.56-5.69.76-8.55.62-2.85-.14-5.69-.63-8.45-1.46-2.2-.66-4.6-.8-7.01-.32-7.89,1.57-13.02,9.25-11.44,17.14,1.57,7.89,9.25,13.02,17.14,11.45,2.41-.48,4.57-1.53,6.35-2.99,4.47-3.64,9.73-6.16,15.38-7.29,2.83-.56,5.7-.77,8.55-.62,2.86.14,5.7.63,8.45,1.46,2.21.66,4.6.8,7.01.32,7.9-1.57,13.02-9.25,11.45-17.15-1.57-7.89-9.25-13.02-17.15-11.45Zm-41.76,29.13c-3.16.63-6.23-1.42-6.86-4.58-.63-3.16,1.42-6.23,4.58-6.86,3.16-.63,6.23,1.42,6.86,4.58.63,3.16-1.42,6.23-4.58,6.86Zm45.75-9.12c-3.16.63-6.23-1.42-6.86-4.58-.63-3.16,1.42-6.23,4.58-6.86,3.16-.63,6.23,1.42,6.86,4.58.63,3.16-1.42,6.23-4.58,6.86Z"/>
    <path d="m509.57,797.46c-2.41.48-4.57,1.53-6.35,2.99-4.46,3.64-9.73,6.16-15.38,7.29-2.82.56-5.69.76-8.55.62-2.85-.14-5.69-.63-8.45-1.46-2.2-.66-4.6-.8-7.01-.32-7.89,1.57-13.02,9.25-11.44,17.14,1.57,7.89,9.25,13.02,17.14,11.45,2.41-.48,4.57-1.53,6.35-2.99,4.47-3.64,9.73-6.16,15.38-7.29,2.83-.56,5.7-.77,8.55-.62,2.86.14,5.7.63,8.45,1.46,2.21.66,4.6.8,7.01.32,7.9-1.57,13.02-9.25,11.45-17.15-1.57-7.89-9.25-13.02-17.15-11.45Zm-41.76,29.13c-3.16.63-6.23-1.42-6.86-4.58-.63-3.16,1.42-6.23,4.58-6.86,3.16-.63,6.23,1.42,6.86,4.58.63,3.16-1.42,6.23-4.58,6.86Zm45.75-9.12c-3.16.63-6.23-1.42-6.86-4.58-.63-3.16,1.42-6.23,4.58-6.86s6.23,1.42,6.86,4.58c.63,3.16-1.42,6.23-4.58,6.86Z"/>
    <path d="m418.08,815.69c-2.41.48-4.57,1.53-6.35,2.99-4.46,3.64-9.73,6.16-15.38,7.29-2.82.56-5.69.76-8.55.62-2.85-.14-5.69-.63-8.45-1.46-2.2-.66-4.6-.8-7.01-.32-7.89,1.57-13.02,9.25-11.44,17.14,1.57,7.89,9.25,13.02,17.14,11.45,2.41-.48,4.57-1.53,6.35-2.99,4.47-3.64,9.73-6.16,15.38-7.29,2.83-.56,5.7-.77,8.55-.62,2.86.14,5.7.63,8.45,1.46,2.21.66,4.6.8,7.01.32,7.9-1.57,13.02-9.25,11.45-17.15-1.57-7.89-9.25-13.02-17.15-11.45Zm-41.76,29.13c-3.16.63-6.23-1.42-6.86-4.58-.63-3.16,1.42-6.23,4.58-6.86,3.16-.63,6.23,1.42,6.86,4.58.63,3.16-1.42,6.23-4.58,6.86Zm45.75-9.12c-3.16.63-6.23-1.42-6.86-4.58-.63-3.16,1.42-6.23,4.58-6.86,3.16-.63,6.23,1.42,6.86,4.58.63,3.16-1.42,6.23-4.58,6.86Z"/>
    <path d="m815.74,741.43c-2.44,1.12-5,1.96-7.66,2.48-2.65.53-5.35.74-8.02.64,2.29,2.4,3.95,5.46,4.65,8.95.7,3.49.34,6.95-.86,10.05,2.44-1.12,5-1.96,7.66-2.48,2.65-.53,5.35-.74,8.02-.64-2.29-2.4-3.95-5.46-4.65-8.95-.7-3.49-.34-6.95.86-10.05Z"/>
    <path d="m891.55,726.33c2.68.1,5.37-.11,8.02-.64l3.42,17.16c-2.65.53-5.22,1.37-7.66,2.48,1.2-3.1,1.56-6.56.86-10.05-.7-3.49-2.36-6.55-4.65-8.95Z"/>
    <path d="m724.24,759.67c-2.44,1.12-5,1.96-7.66,2.48-2.65.53-5.35.74-8.02.64,2.29,2.4,3.95,5.46,4.65,8.95.7,3.49.34,6.95-.86,10.05,2.44-1.12,5-1.96,7.66-2.48,2.65-.53,5.35-.74,8.02-.64-2.29-2.4-3.95-5.46-4.65-8.95s-.34-6.95.86-10.05Z"/>
    <path d="m632.74,777.9c-2.44,1.12-5,1.96-7.66,2.48l3.42,17.16c2.65-.53,5.35-.74,8.02-.64-2.29-2.4-3.95-5.46-4.65-8.95-.7-3.49-.34-6.95.86-10.05Z"/>
    <path d="m875.56,724.52c-2.41.48-4.57,1.53-6.35,2.99-4.46,3.64-9.73,6.16-15.38,7.29-2.82.56-5.69.76-8.55.62-2.85-.14-5.69-.63-8.45-1.46-2.2-.66-4.6-.8-7.01-.32-7.89,1.57-13.02,9.25-11.44,17.14,1.57,7.89,9.25,13.02,17.14,11.45,2.41-.48,4.57-1.53,6.35-2.99,4.47-3.64,9.73-6.16,15.38-7.29,2.83-.56,5.7-.77,8.55-.62,2.86.14,5.7.63,8.45,1.46,2.21.66,4.6.8,7.01.32,7.9-1.57,13.02-9.25,11.45-17.15s-9.25-13.02-17.15-11.45Zm-41.76,29.13c-3.16.63-6.23-1.42-6.86-4.58-.63-3.16,1.42-6.23,4.58-6.86,3.16-.63,6.23,1.42,6.86,4.58.63,3.16-1.42,6.23-4.58,6.86Zm45.75-9.12c-3.16.63-6.23-1.42-6.86-4.58-.63-3.16,1.42-6.23,4.58-6.86,3.16-.63,6.23,1.42,6.86,4.58.63,3.16-1.42,6.23-4.58,6.86Z"/>
    <path d="m784.07,742.76c-2.41.48-4.57,1.53-6.35,2.99-4.46,3.64-9.73,6.16-15.38,7.29-2.82.56-5.69.76-8.55.62-2.85-.14-5.69-.63-8.45-1.46-2.2-.66-4.6-.8-7.01-.32-7.89,1.57-13.02,9.25-11.44,17.14,1.57,7.89,9.25,13.02,17.14,11.45,2.41-.48,4.57-1.53,6.35-2.99,4.47-3.64,9.73-6.16,15.38-7.29,2.83-.56,5.7-.77,8.55-.62,2.86.14,5.7.63,8.45,1.46,2.21.66,4.6.8,7.01.32,7.9-1.57,13.02-9.25,11.45-17.15s-9.25-13.02-17.15-11.45Zm-41.76,29.13c-3.16.63-6.23-1.42-6.86-4.58-.63-3.16,1.42-6.23,4.58-6.86s6.23,1.42,6.86,4.58-1.42,6.23-4.58,6.86Zm45.75-9.12c-3.16.63-6.23-1.42-6.86-4.58-.63-3.16,1.42-6.23,4.58-6.86,3.16-.63,6.23,1.42,6.86,4.58.63,3.16-1.42,6.23-4.58,6.86Z"/>
    <path d="m692.57,760.99c-2.41.48-4.57,1.53-6.35,2.99-4.46,3.64-9.73,6.16-15.38,7.29-2.82.56-5.69.76-8.55.62-2.85-.14-5.69-.63-8.45-1.46-2.2-.66-4.6-.8-7.01-.32-7.89,1.57-13.02,9.25-11.44,17.14,1.57,7.89,9.25,13.02,17.14,11.45,2.41-.48,4.57-1.53,6.35-2.99,4.47-3.64,9.73-6.16,15.38-7.29,2.83-.56,5.7-.77,8.55-.62,2.86.14,5.7.63,8.45,1.46,2.21.66,4.6.8,7.01.32,7.9-1.57,13.02-9.25,11.45-17.15s-9.25-13.02-17.15-11.45Zm-41.76,29.13c-3.16.63-6.23-1.42-6.86-4.58-.63-3.16,1.42-6.23,4.58-6.86,3.16-.63,6.23,1.42,6.86,4.58s-1.42,6.23-4.58,6.86Zm45.75-9.12c-3.16.63-6.23-1.42-6.86-4.58-.63-3.16,1.42-6.23,4.58-6.86s6.23,1.42,6.86,4.58c.63,3.16-1.42,6.23-4.58,6.86Z"/>
    <path d="m1090.23,686.73c-2.44,1.12-5,1.96-7.66,2.48-2.65.53-5.35.74-8.02.64,2.29,2.4,3.95,5.46,4.65,8.95.7,3.49.34,6.95-.86,10.05,2.44-1.12,5-1.96,7.66-2.48,2.65-.53,5.35-.74,8.02-.64-2.29-2.4-3.95-5.46-4.65-8.95-.7-3.49-.34-6.95.86-10.05Z"/>
    <path d="m1168.13,678.6c2.65.4,5.35.5,8.05.28l1.44,17.43c-2.7.22-5.34.76-7.89,1.59,1.54-2.94,2.29-6.34,2-9.88-.29-3.55-1.59-6.78-3.6-9.42Z"/>
    <path d="m998.73,704.97c-2.44,1.12-5,1.96-7.66,2.48-2.65.53-5.35.74-8.02.64,2.29,2.4,3.95,5.46,4.65,8.95.7,3.49.34,6.95-.86,10.05,2.44-1.12,5-1.96,7.66-2.48s5.35-.74,8.02-.64c-2.29-2.4-3.95-5.46-4.65-8.95-.7-3.49-.34-6.95.86-10.05Z"/>
    <path d="m907.23,723.2c-2.44,1.12-5,1.96-7.66,2.48l3.42,17.16c2.65-.53,5.35-.74,8.02-.64-2.29-2.4-3.95-5.46-4.65-8.95-.7-3.49-.34-6.95.86-10.05Z"/>
    <path d="m1152.45,674.99c-2.45.2-4.71,1-6.65,2.24-4.85,3.1-10.37,5.01-16.11,5.49-2.87.24-5.74.11-8.57-.36-2.82-.47-5.58-1.28-8.23-2.41-2.11-.91-4.47-1.32-6.93-1.12-8.02.66-13.99,7.7-13.33,15.73.66,8.02,7.7,13.99,15.72,13.33,2.45-.2,4.72-1,6.65-2.24,4.85-3.11,10.37-5.01,16.11-5.49,2.87-.24,5.75-.11,8.57.36,2.82.47,5.59,1.28,8.23,2.41,2.12.91,4.48,1.32,6.93,1.12,8.03-.66,13.99-7.7,13.33-15.73-.66-8.02-7.7-13.99-15.73-13.33Zm-44.81,24.18c-3.21.26-6.03-2.12-6.29-5.33-.26-3.21,2.12-6.03,5.33-6.29s6.03,2.12,6.29,5.33c.26,3.21-2.12,6.03-5.33,6.29Zm46.49-3.84c-3.21.26-6.03-2.12-6.29-5.33-.26-3.21,2.12-6.03,5.33-6.29,3.21-.26,6.03,2.12,6.29,5.33.26,3.21-2.12,6.03-5.33,6.29Z"/>
    <path d="m1058.56,688.06c-2.41.48-4.57,1.53-6.35,2.99-4.46,3.64-9.73,6.16-15.38,7.29-2.82.56-5.69.76-8.55.62-2.85-.14-5.69-.63-8.45-1.46-2.2-.66-4.6-.8-7.01-.32-7.89,1.57-13.02,9.25-11.44,17.14s9.25,13.02,17.14,11.45c2.41-.48,4.57-1.53,6.35-2.99,4.47-3.64,9.73-6.16,15.38-7.29,2.83-.56,5.7-.77,8.55-.62,2.86.14,5.7.63,8.45,1.46,2.21.66,4.6.8,7.01.32,7.9-1.57,13.02-9.25,11.45-17.15-1.57-7.89-9.25-13.02-17.15-11.45Zm-41.76,29.13c-3.16.63-6.23-1.42-6.86-4.58-.63-3.16,1.42-6.23,4.58-6.86s6.23,1.42,6.86,4.58c.63,3.16-1.42,6.23-4.58,6.86Zm45.75-9.12c-3.16.63-6.23-1.42-6.86-4.58-.63-3.16,1.42-6.23,4.58-6.86,3.16-.63,6.23,1.42,6.86,4.58.63,3.16-1.42,6.23-4.58,6.86Z"/>
    <path d="m967.06,706.29c-2.41.48-4.57,1.53-6.35,2.99-4.46,3.64-9.73,6.16-15.38,7.29-2.82.56-5.69.76-8.55.62-2.85-.14-5.69-.63-8.45-1.46-2.2-.66-4.6-.8-7.01-.32-7.89,1.57-13.02,9.25-11.44,17.14,1.57,7.89,9.25,13.02,17.14,11.45,2.41-.48,4.57-1.53,6.35-2.99,4.47-3.64,9.73-6.16,15.38-7.29,2.83-.56,5.7-.77,8.55-.62,2.86.14,5.7.63,8.45,1.46,2.21.66,4.6.8,7.01.32,7.9-1.57,13.02-9.25,11.45-17.15s-9.25-13.02-17.15-11.45Zm-41.76,29.13c-3.16.63-6.23-1.42-6.86-4.58-.63-3.16,1.42-6.23,4.58-6.86,3.16-.63,6.23,1.42,6.86,4.58.63,3.16-1.42,6.23-4.58,6.86Zm45.75-9.12c-3.16.63-6.23-1.42-6.86-4.58s1.42-6.23,4.58-6.86c3.16-.63,6.23,1.42,6.86,4.58s-1.42,6.23-4.58,6.86Z"/>
    <path d="m1369.94,661.5c-2.54.85-5.19,1.4-7.88,1.64-2.69.24-5.39.15-8.05-.23,2.02,2.64,3.34,5.86,3.65,9.4.31,3.55-.42,6.95-1.95,9.9,2.54-.85,5.19-1.4,7.88-1.64s5.39-.15,8.05.23c-2.02-2.64-3.34-5.86-3.65-9.4-.31-3.55.42-6.95,1.95-9.9Z"/>
    <path d="m1448.53,665.22c2.55.83,5.2,1.36,7.89,1.58l-1.4,17.44c-2.7-.22-5.4-.11-8.04.3,2-2.65,3.29-5.88,3.58-9.43s-.48-6.94-2.02-9.88Z"/>
    <path d="m1277.05,669.61c-2.55.83-5.19,1.37-7.89,1.59s-5.4.12-8.05-.28c2,2.65,3.3,5.87,3.6,9.42.29,3.55-.46,6.95-2,9.88,2.55-.83,5.19-1.37,7.89-1.59s5.4-.12,8.05.28c-2-2.65-3.3-5.87-3.6-9.42-.29-3.55.46-6.95,2-9.88Z"/>
    <path d="m1184.07,677.29c-2.55.83-5.19,1.37-7.89,1.59l1.44,17.43c2.7-.22,5.4-.12,8.05.28-2-2.65-3.3-5.87-3.6-9.42s.46-6.95,2-9.88Z"/>
    <path d="m1433.65,659.12c-2.45-.2-4.81.22-6.93,1.14-5.29,2.28-11.05,3.27-16.79,2.81-2.87-.23-5.69-.82-8.39-1.74-2.71-.92-5.3-2.16-7.73-3.71-1.94-1.24-4.2-2.03-6.66-2.23-8.02-.64-15.05,5.34-15.69,13.36-.64,8.02,5.34,15.05,13.36,15.7,2.45.2,4.81-.22,6.93-1.14,5.29-2.28,11.05-3.27,16.79-2.81,2.87.23,5.69.82,8.39,1.74,2.71.92,5.31,2.16,7.73,3.71,1.94,1.24,4.2,2.03,6.66,2.23,8.03.64,15.05-5.34,15.7-13.36.64-8.02-5.34-15.05-13.36-15.7Zm-48.13,16.61c-3.21-.26-5.6-3.07-5.35-6.28.26-3.21,3.07-5.6,6.28-5.35s5.6,3.07,5.35,6.28-3.07,5.6-6.28,5.35Zm46.5,3.74c-3.21-.26-5.6-3.07-5.35-6.28.26-3.21,3.07-5.6,6.28-5.35,3.21.26,5.6,3.07,5.35,6.28-.26,3.21-3.07,5.6-6.28,5.35Z"/>
    <path d="m1338.32,659.38c-2.45.22-4.71,1.03-6.64,2.28-4.83,3.13-10.34,5.07-16.08,5.58-2.87.25-5.74.14-8.57-.31-2.82-.45-5.59-1.25-8.24-2.37-2.12-.9-4.48-1.3-6.93-1.08-8.02.71-13.95,7.78-13.24,15.8.71,8.02,7.78,13.95,15.8,13.24,2.45-.22,4.71-1.03,6.64-2.28,4.84-3.13,10.35-5.07,16.08-5.58,2.87-.25,5.75-.14,8.57.31,2.82.45,5.59,1.25,8.24,2.37,2.12.9,4.49,1.3,6.93,1.08,8.02-.71,13.95-7.78,13.24-15.8-.71-8.02-7.78-13.95-15.8-13.24Zm-44.68,24.42c-3.21.28-6.04-2.09-6.32-5.3-.28-3.21,2.09-6.04,5.3-6.32s6.04,2.09,6.32,5.3c.28,3.21-2.09,6.04-5.3,6.32Zm46.47-4.09c-3.21.28-6.04-2.09-6.32-5.3-.28-3.21,2.09-6.04,5.3-6.32,3.21-.28,6.04,2.09,6.32,5.3.28,3.21-2.09,6.04-5.3,6.32Z"/>
    <path d="m1245.43,667.31c-2.45.2-4.71,1-6.65,2.24-4.85,3.1-10.37,5.01-16.11,5.49-2.87.24-5.74.11-8.57-.36-2.82-.47-5.58-1.28-8.23-2.41-2.11-.91-4.47-1.32-6.93-1.12-8.02.66-13.99,7.7-13.33,15.73.66,8.02,7.7,13.99,15.72,13.33,2.45-.2,4.72-1,6.65-2.24,4.85-3.11,10.37-5.01,16.11-5.49,2.87-.24,5.75-.11,8.57.36,2.82.47,5.59,1.28,8.23,2.41,2.12.91,4.48,1.32,6.93,1.12,8.03-.66,13.99-7.7,13.33-15.73-.66-8.02-7.7-13.99-15.73-13.33Zm-44.81,24.18c-3.21.26-6.03-2.12-6.29-5.33-.26-3.21,2.12-6.03,5.33-6.29s6.03,2.12,6.29,5.33c.26,3.21-2.12,6.03-5.33,6.29Zm46.49-3.84c-3.21.26-6.03-2.12-6.29-5.33-.26-3.21,2.12-6.03,5.33-6.29,3.21-.27,6.03,2.12,6.29,5.33s-2.12,6.03-5.33,6.29Z"/>
    <path d="m1650.03,692.62c-2.68.02-5.37-.27-8-.88-2.64-.61-5.18-1.52-7.58-2.71,1.11,3.13,1.36,6.6.57,10.07-.8,3.47-2.55,6.48-4.91,8.81,2.68-.02,5.37.27,8,.88,2.64.61,5.18,1.52,7.58,2.71-1.11-3.13-1.36-6.6-.57-10.07.8-3.47,2.55-6.48,4.91-8.81Z"/>
    <path d="m1723.8,719.77c2.18,1.55,4.55,2.86,7.06,3.87l-6.57,16.21c-2.51-1.02-5.11-1.72-7.76-2.13,2.7-1.93,4.9-4.62,6.24-7.92,1.34-3.3,1.63-6.77,1.03-10.03Z"/>
    <path d="m1557.43,673.7c-2.65.42-5.35.53-8.04.32-2.7-.21-5.35-.74-7.9-1.55,1.56,2.93,2.33,6.32,2.05,9.87-.28,3.55-1.56,6.78-3.55,9.44,2.65-.42,5.35-.53,8.04-.32s5.35.74,7.9,1.55c-1.56-2.93-2.33-6.32-2.05-9.87.28-3.55,1.56-6.78,3.55-9.44Z"/>
    <path d="m1464.41,666.48c-2.65.42-5.35.53-8.04.32l-1.35,17.44c2.7.21,5.35.74,7.9,1.55-1.56-2.93-2.33-6.32-2.05-9.87s1.56-6.78,3.55-9.44Z"/>
    <path d="m1711.42,709.49c-2.28-.92-4.66-1.23-6.95-.99-5.73.59-11.52-.19-16.86-2.36-2.67-1.08-5.18-2.49-7.49-4.18-2.31-1.69-4.41-3.66-6.26-5.86-1.48-1.76-3.4-3.2-5.68-4.12-7.46-3.02-15.96.58-18.98,8.04s.58,15.96,8.04,18.98c2.28.92,4.66,1.23,6.95.99,5.73-.59,11.52.2,16.86,2.36,2.67,1.08,5.18,2.49,7.49,4.18,2.31,1.69,4.41,3.66,6.26,5.86,1.48,1.76,3.4,3.2,5.68,4.12,7.46,3.02,15.96-.58,18.98-8.04,3.02-7.46-.58-15.96-8.04-18.98Zm-50.89,1.41c-2.98-1.21-4.42-4.61-3.22-7.59,1.21-2.98,4.61-4.42,7.59-3.22,2.98,1.21,4.42,4.61,3.22,7.59-1.21,2.98-4.61,4.42-7.59,3.22Zm43.24,17.51c-2.98-1.21-4.42-4.61-3.22-7.59,1.21-2.98,4.61-4.42,7.59-3.22,2.98,1.21,4.42,4.61,3.22,7.59s-4.61,4.42-7.59,3.22Z"/>
    <path d="m1620.6,680.84c-2.4-.55-4.79-.48-7.02.12-5.56,1.49-11.4,1.63-17.02.34-2.81-.65-5.51-1.64-8.05-2.94-2.54-1.3-4.93-2.91-7.11-4.8-1.74-1.51-3.86-2.62-6.26-3.17-7.85-1.8-15.67,3.1-17.47,10.94-1.8,7.85,3.09,15.67,10.94,17.47,2.4.55,4.8.48,7.02-.12,5.57-1.49,11.41-1.63,17.02-.34,2.81.65,5.51,1.64,8.05,2.94,2.55,1.3,4.93,2.91,7.11,4.8,1.74,1.51,3.86,2.62,6.26,3.17,7.85,1.8,15.67-3.1,17.47-10.94,1.8-7.85-3.09-15.67-10.94-17.47Zm-50.03,9.44c-3.14-.72-5.1-3.85-4.38-6.99.72-3.14,3.85-5.1,6.99-4.38,3.14.72,5.1,3.85,4.38,6.99s-3.85,5.1-6.99,4.38Zm45.46,10.45c-3.14-.72-5.1-3.85-4.38-6.99.72-3.14,3.85-5.1,6.99-4.38,3.14.72,5.1,3.85,4.38,6.99-.72,3.14-3.85,5.1-6.99,4.38Z"/>
    <path d="m1526.58,666.4c-2.45-.19-4.81.24-6.92,1.16-5.28,2.29-11.04,3.3-16.78,2.85-2.87-.22-5.69-.81-8.4-1.72-2.71-.91-5.31-2.15-7.74-3.69-1.94-1.23-4.21-2.02-6.66-2.21-8.03-.62-15.04,5.38-15.66,13.41-.62,8.03,5.38,15.04,13.4,15.66,2.45.19,4.81-.24,6.92-1.16,5.29-2.29,11.04-3.3,16.78-2.85,2.87.22,5.69.81,8.4,1.72,2.71.91,5.31,2.15,7.74,3.69,1.94,1.23,4.21,2.02,6.66,2.21,8.03.62,15.04-5.38,15.66-13.41.62-8.03-5.38-15.04-13.41-15.66Zm-48.09,16.74c-3.21-.25-5.61-3.05-5.36-6.26.25-3.21,3.05-5.61,6.26-5.36s5.61,3.05,5.36,6.26c-.25,3.21-3.05,5.61-6.26,5.36Zm46.51,3.61c-3.21-.25-5.61-3.05-5.36-6.26.25-3.21,3.05-5.61,6.26-5.36,3.21.25,5.61,3.05,5.36,6.26-.25,3.21-3.05,5.61-6.26,5.36Z"/>
    <path d="m1729.52,873.61c2.13-1.63,4.45-3.01,6.92-4.12,2.47-1.1,5.05-1.9,7.68-2.4-2.77-1.83-5.06-4.45-6.51-7.7-1.45-3.25-1.87-6.71-1.38-9.99-2.13,1.63-4.45,3.01-6.92,4.12-2.47,1.1-5.05,1.9-7.68,2.4,2.77,1.83,5.06,4.45,6.51,7.7,1.45,3.25,1.87,6.71,1.38,9.99Z"/>
    <path d="m1648.66,874.69c-2.55-.84-5.19-1.39-7.89-1.62l1.49-17.43c2.7.23,5.39.14,8.05-.25-2.01,2.64-3.32,5.86-3.62,9.41-.3,3.55.44,6.95,1.97,9.89Z"/>
    <path d="m1795.3,805.16c-1.44-2.26-2.62-4.69-3.5-7.25-.88-2.56-1.46-5.2-1.72-7.86-2.07,2.6-4.87,4.66-8.24,5.82-3.36,1.16-6.84,1.27-10.07.51,1.44,2.26,2.62,4.69,3.5,7.25.88,2.56,1.46,5.2,1.72,7.86,2.07-2.6,4.87-4.66,8.24-5.82,3.36-1.16,6.84-1.27,10.07-.51Z"/>
    <path d="m1738.62,725.78c-2.65-.41-5.26-1.11-7.76-2.13l-6.57,16.21c2.51,1.02,4.87,2.32,7.06,3.87-.6-3.26-.3-6.73,1.03-10.03,1.34-3.3,3.54-5.99,6.24-7.92Z"/>
    <path d="m1663.51,880.87c2.45.21,4.81-.2,6.93-1.1,5.3-2.25,11.06-3.21,16.8-2.72,2.87.25,5.68.85,8.39,1.78,2.7.93,5.29,2.19,7.71,3.75,1.93,1.25,4.19,2.05,6.64,2.26,8.02.69,15.08-5.26,15.76-13.28.69-8.02-5.26-15.08-13.28-15.77-2.45-.21-4.82.2-6.93,1.1-5.3,2.25-11.07,3.21-16.8,2.72-2.87-.25-5.69-.85-8.39-1.78-2.7-.93-5.29-2.19-7.71-3.75-1.94-1.25-4.19-2.05-6.64-2.26-8.02-.69-15.08,5.26-15.77,13.28-.69,8.02,5.26,15.08,13.28,15.77Zm48.22-16.36c3.21.27,5.59,3.1,5.31,6.31-.27,3.21-3.1,5.59-6.31,5.31-3.21-.27-5.59-3.1-5.31-6.31.27-3.21,3.1-5.59,6.31-5.31Zm-46.48-3.98c3.21.27,5.59,3.1,5.31,6.31-.27,3.21-3.1,5.59-6.31,5.31-3.21-.27-5.59-3.1-5.31-6.31.27-3.21,3.1-5.59,6.31-5.31Z"/>
    <path d="m1763.11,863.26c1.93-1.53,3.36-3.45,4.28-5.56,2.31-5.28,5.84-9.93,10.35-13.51,2.26-1.79,4.72-3.28,7.32-4.46,2.6-1.18,5.35-2.04,8.18-2.57,2.26-.42,4.46-1.38,6.38-2.92,6.3-5.01,7.35-14.18,2.34-20.48-5.01-6.3-14.18-7.36-20.48-2.35-1.93,1.53-3.37,3.45-4.28,5.56-2.31,5.28-5.84,9.93-10.35,13.51-2.26,1.79-4.72,3.28-7.32,4.46-2.6,1.18-5.35,2.04-8.18,2.57-2.26.42-4.46,1.39-6.38,2.92-6.31,5.01-7.35,14.18-2.35,20.48,5.01,6.3,14.18,7.36,20.48,2.35Zm23.83-44.99c2.52-2,6.19-1.58,8.19.94,2,2.52,1.58,6.19-.94,8.19s-6.19,1.58-8.19-.94c-2-2.52-1.58-6.19.94-8.19Zm-36.53,29.01c2.52-2,6.19-1.58,8.19.94,2,2.52,1.58,6.19-.94,8.19-2.52,2-6.19,1.58-8.19-.94-2-2.52-1.58-6.19.94-8.19Z"/>
    <path d="m1787.84,770.26c-1.42-2-3.26-3.54-5.32-4.57-5.15-2.59-9.6-6.36-12.94-11.06-1.67-2.35-3.03-4.88-4.06-7.55-1.04-2.66-1.75-5.45-2.13-8.31-.3-2.28-1.15-4.52-2.57-6.53-4.66-6.56-13.76-8.1-20.33-3.43-6.56,4.66-8.1,13.76-3.44,20.33,1.43,2.01,3.27,3.54,5.32,4.57,5.15,2.59,9.61,6.36,12.94,11.06,1.67,2.35,3.03,4.89,4.06,7.55,1.04,2.66,1.75,5.46,2.13,8.31.3,2.28,1.15,4.53,2.57,6.53,4.67,6.56,13.77,8.1,20.33,3.43,6.56-4.66,8.1-13.76,3.43-20.33Zm-43.66-26.19c-1.87-2.62-1.25-6.27,1.37-8.13,2.62-1.87,6.27-1.25,8.13,1.37,1.87,2.63,1.25,6.27-1.37,8.13-2.62,1.87-6.26,1.25-8.13-1.37Zm27.03,38.02c-1.87-2.62-1.25-6.27,1.37-8.13,2.62-1.87,6.27-1.25,8.13,1.37,1.87,2.63,1.25,6.27-1.37,8.13-2.62,1.87-6.26,1.25-8.13-1.37Z"/>
    <path d="m1446.06,853.22c2.68-.04,5.37.22,8.01.8,2.64.58,5.19,1.47,7.61,2.64-1.13-3.12-1.43-6.59-.66-10.06.77-3.48,2.49-6.5,4.83-8.86-2.68.04-5.37-.22-8.01-.8-2.64-.58-5.19-1.47-7.61-2.64,1.13,3.12,1.43,6.59.66,10.06-.77,3.48-2.49,6.5-4.83,8.86Z"/>
    <path d="m1371.45,829.37c-2.27-1.43-4.7-2.61-7.26-3.49l5.69-16.54c2.56.88,5.2,1.45,7.87,1.71-2.59,2.07-4.65,4.88-5.8,8.25-1.16,3.37-1.26,6.84-.49,10.07Z"/>
    <path d="m1539.77,865.37c2.65-.39,5.35-.48,8.05-.25s5.34.78,7.89,1.62c-1.53-2.94-2.28-6.34-1.97-9.89s1.61-6.77,3.62-9.41c-2.65.39-5.35.48-8.05.25s-5.34-.78-7.89-1.62c1.53,2.94,2.28,6.34,1.97,9.89s-1.61,6.77-3.62,9.41Z"/>
    <path d="m1632.73,873.33c2.65-.39,5.35-.48,8.05-.25l1.49-17.43c-2.7-.23-5.34-.78-7.89-1.62,1.53,2.94,2.28,6.34,1.97,9.89s-1.61,6.77-3.62,9.41Z"/>
    <path d="m1384.35,838.98c2.33.8,4.72.98,6.99.62,5.69-.89,11.51-.42,16.96,1.45,2.72.94,5.3,2.21,7.7,3.77,2.39,1.56,4.6,3.41,6.57,5.52,1.57,1.68,3.57,3.01,5.89,3.81,7.61,2.62,15.9-1.44,18.52-9.05,2.62-7.61-1.43-15.91-9.05-18.52-2.33-.8-4.72-.98-6.99-.62-5.69.89-11.51.42-16.96-1.45-2.73-.94-5.31-2.21-7.7-3.77-2.4-1.56-4.6-3.41-6.57-5.52-1.57-1.68-3.57-3.01-5.89-3.81-7.62-2.62-15.91,1.44-18.52,9.05-2.62,7.61,1.43,15.91,9.05,18.52Zm50.75-4.14c3.05,1.05,4.67,4.36,3.62,7.41-1.05,3.05-4.36,4.67-7.41,3.62s-4.67-4.36-3.62-7.41c1.05-3.05,4.36-4.67,7.41-3.62Zm-44.12-15.16c3.05,1.05,4.67,4.36,3.62,7.41-1.05,3.05-4.36,4.67-7.41,3.62-3.05-1.05-4.67-4.36-3.62-7.41,1.05-3.05,4.36-4.67,7.41-3.62Z"/>
    <path d="m1477.6,864.96c2.45.21,4.81-.2,6.93-1.1,5.3-2.25,11.06-3.21,16.8-2.72,2.87.25,5.68.85,8.39,1.78,2.7.93,5.29,2.19,7.71,3.75,1.93,1.25,4.19,2.05,6.64,2.26,8.02.69,15.08-5.26,15.76-13.28.69-8.02-5.26-15.08-13.28-15.77-2.45-.21-4.82.2-6.93,1.1-5.3,2.25-11.07,3.21-16.8,2.72-2.87-.25-5.69-.85-8.39-1.78-2.7-.93-5.29-2.19-7.71-3.75-1.94-1.25-4.19-2.05-6.64-2.26-8.02-.69-15.08,5.26-15.77,13.28-.69,8.02,5.26,15.08,13.28,15.77Zm48.22-16.36c3.21.27,5.59,3.1,5.31,6.31-.27,3.21-3.1,5.59-6.31,5.31-3.21-.27-5.59-3.1-5.31-6.31.27-3.21,3.1-5.59,6.31-5.31Zm-46.48-3.98c3.21.27,5.59,3.1,5.31,6.31-.27,3.21-3.1,5.59-6.31,5.31-3.21-.27-5.59-3.1-5.31-6.31.27-3.21,3.1-5.59,6.31-5.31Z"/>
    <path d="m1570.56,872.92c2.45.21,4.81-.2,6.93-1.1,5.3-2.25,11.06-3.21,16.8-2.72,2.87.25,5.68.85,8.39,1.78,2.7.93,5.29,2.19,7.71,3.75,1.93,1.25,4.19,2.05,6.64,2.26,8.02.69,15.08-5.26,15.76-13.28.69-8.02-5.26-15.08-13.28-15.77-2.45-.21-4.82.2-6.93,1.1-5.3,2.25-11.07,3.21-16.8,2.72-2.87-.25-5.69-.85-8.39-1.78-2.7-.93-5.29-2.19-7.71-3.75-1.94-1.25-4.19-2.05-6.64-2.26-8.02-.69-15.08,5.26-15.77,13.28-.69,8.02,5.26,15.08,13.28,15.77Zm48.22-16.36c3.21.27,5.59,3.1,5.31,6.31-.27,3.21-3.1,5.59-6.31,5.31-3.21-.27-5.59-3.1-5.31-6.31.27-3.21,3.1-5.59,6.31-5.31Zm-46.48-3.98c3.21.27,5.59,3.1,5.31,6.31-.27,3.21-3.1,5.59-6.31,5.31-3.21-.27-5.59-3.1-5.31-6.31.27-3.21,3.1-5.59,6.31-5.31Z"/>
    <path d="m1183.15,752.18c2.6.66,5.12,1.62,7.52,2.88s4.62,2.79,6.64,4.54c-.27-3.31.36-6.73,2.01-9.88,1.65-3.15,4.11-5.62,6.99-7.27-2.6-.66-5.12-1.62-7.52-2.88-2.4-1.26-4.62-2.79-6.64-4.54.27,3.31-.36,6.73-2.01,9.88-1.65,3.15-4.11,5.62-6.99,7.27Z"/>
    <path d="m1268.09,793.85c2.67.26,5.31.83,7.87,1.71,2.56.88,4.99,2.05,7.26,3.49-.77-3.23-.67-6.71.49-10.07,1.16-3.37,3.21-6.18,5.8-8.25-2.67-.26-5.31-.83-7.87-1.71-2.56-.88-4.99-2.05-7.26-3.49.77,3.23.67,6.71-.49,10.07-1.16,3.37-3.21,6.18-5.8,8.25Z"/>
    <path d="m1356.33,824.17c2.67.26,5.31.83,7.87,1.71l5.69-16.54c-2.56-.88-4.99-2.05-7.26-3.49.77,3.23.67,6.71-.49,10.07s-3.21,6.18-5.8,8.25Z"/>
    <path d="m1128.25,719.77c1.96,1.49,4.17,2.41,6.44,2.78,5.68.94,11.06,3.22,15.65,6.71,2.29,1.74,4.34,3.76,6.12,6,1.78,2.23,3.29,4.69,4.5,7.3.96,2.09,2.44,3.98,4.4,5.47,6.4,4.88,15.55,3.64,20.43-2.77,4.88-6.4,3.64-15.55-2.76-20.43-1.96-1.49-4.17-2.41-6.44-2.78-5.68-.94-11.06-3.22-15.65-6.71-2.29-1.75-4.34-3.76-6.12-6-1.78-2.23-3.29-4.69-4.5-7.3-.96-2.09-2.44-3.98-4.4-5.47-6.41-4.88-15.55-3.64-20.43,2.76-4.88,6.4-3.64,15.55,2.76,20.43Zm49.47,12.03c2.56,1.95,3.06,5.61,1.11,8.17s-5.61,3.06-8.17,1.11c-2.56-1.95-3.06-5.61-1.11-8.17,1.95-2.56,5.61-3.06,8.17-1.11Zm-37.11-28.26c2.56,1.95,3.06,5.61,1.11,8.17-1.95,2.56-5.61,3.06-8.17,1.11-2.56-1.95-3.06-5.61-1.11-8.17,1.95-2.56,5.61-3.06,8.17-1.11Z"/>
    <path d="m1208.62,771.05c2.18,1.14,4.51,1.68,6.82,1.67,5.76-.02,11.44,1.32,16.55,4,2.55,1.34,4.91,2.98,7.04,4.89,2.13,1.9,4.03,4.07,5.66,6.45,1.3,1.9,3.07,3.51,5.25,4.66,7.13,3.74,15.94.99,19.68-6.14,3.74-7.13.99-15.94-6.14-19.68-2.18-1.14-4.52-1.68-6.82-1.67-5.76.02-11.45-1.32-16.55-4-2.55-1.34-4.91-2.99-7.04-4.89-2.13-1.9-4.03-4.07-5.66-6.45-1.3-1.9-3.07-3.52-5.25-4.66-7.13-3.74-15.94-.99-19.68,6.14-3.74,7.13-.99,15.94,6.14,19.68Zm50.79,3.58c2.85,1.5,3.95,5.02,2.46,7.87s-5.02,3.95-7.87,2.46-3.95-5.02-2.46-7.87c1.5-2.85,5.02-3.95,7.87-2.46Zm-41.31-21.66c2.85,1.5,3.95,5.02,2.46,7.87s-5.02,3.95-7.87,2.46-3.95-5.02-2.46-7.87c1.5-2.85,5.02-3.95,7.87-2.46Z"/>
    <path d="m1296.12,808.65c2.33.8,4.72.98,6.99.62,5.69-.89,11.51-.42,16.96,1.45,2.72.94,5.3,2.21,7.7,3.77,2.39,1.56,4.6,3.41,6.57,5.52,1.57,1.68,3.57,3.01,5.89,3.81,7.61,2.62,15.9-1.44,18.52-9.05,2.62-7.61-1.43-15.91-9.05-18.52-2.33-.8-4.72-.98-6.99-.62-5.69.89-11.51.42-16.96-1.45-2.73-.94-5.31-2.21-7.7-3.77-2.4-1.56-4.6-3.41-6.57-5.52-1.57-1.68-3.57-3.01-5.89-3.81-7.62-2.62-15.91,1.44-18.52,9.05-2.62,7.61,1.43,15.91,9.05,18.52Zm50.75-4.14c3.05,1.05,4.67,4.36,3.62,7.41-1.05,3.05-4.36,4.67-7.41,3.62-3.05-1.05-4.67-4.36-3.62-7.41,1.05-3.05,4.36-4.67,7.41-3.62Zm-44.12-15.16c3.05,1.05,4.67,4.36,3.62,7.41-1.05,3.05-4.36,4.67-7.41,3.62-3.05-1.05-4.67-4.36-3.62-7.41,1.05-3.05,4.36-4.67,7.41-3.62Z"/>
    <path d="m1047.97,641.47c2.19,1.54,4.21,3.34,6,5.36s3.33,4.25,4.6,6.61c.92-3.19,2.72-6.16,5.39-8.52,2.67-2.36,5.84-3.79,9.11-4.32-2.19-1.54-4.21-3.34-6-5.36s-3.33-4.25-4.6-6.61c-.92,3.19-2.72,6.16-5.39,8.52-2.67,2.36-5.84,3.79-9.11,4.32Z"/>
    <path d="m1003.22,598.31c1.63,1.84,3.62,3.17,5.78,3.98,5.39,2.02,10.23,5.3,14.05,9.61,1.91,2.16,3.53,4.53,4.84,7.07,1.32,2.54,2.32,5.24,3,8.03.54,2.24,1.62,4.38,3.25,6.22,5.34,6.03,14.55,6.58,20.58,1.25,6.03-5.34,6.59-14.55,1.25-20.58-1.63-1.84-3.63-3.18-5.78-3.98-5.39-2.03-10.23-5.3-14.05-9.61-1.91-2.16-3.53-4.54-4.84-7.07-1.32-2.54-2.32-5.24-3-8.03-.54-2.24-1.62-4.38-3.25-6.22-5.34-6.03-14.55-6.58-20.58-1.25-6.03,5.34-6.59,14.55-1.25,20.58Zm46.2,21.39c2.13,2.41,1.91,6.1-.5,8.23-2.41,2.13-6.1,1.91-8.23-.5-2.13-2.41-1.91-6.1.5-8.23,2.41-2.13,6.1-1.91,8.23.5Zm-30.93-34.92c2.13,2.41,1.91,6.1-.5,8.23-2.41,2.13-6.1,1.91-8.23-.5-2.13-2.41-1.91-6.1.5-8.23,2.41-2.13,6.1-1.91,8.23.5Z"/>
    <path d="m1065.08,668.16c1.63,1.84,3.62,3.17,5.78,3.98,5.39,2.02,10.23,5.3,14.05,9.61,1.91,2.16,3.53,4.53,4.84,7.07,1.32,2.54,2.32,5.24,3,8.03.54,2.24,1.62,4.38,3.25,6.22,5.34,6.03,14.55,6.58,20.58,1.25,6.03-5.34,6.59-14.55,1.25-20.58-1.63-1.84-3.63-3.18-5.78-3.98-5.39-2.03-10.23-5.3-14.05-9.61-1.91-2.16-3.53-4.54-4.84-7.07-1.32-2.54-2.32-5.24-3-8.03-.54-2.24-1.62-4.38-3.25-6.22-5.34-6.03-14.55-6.58-20.58-1.25-6.03,5.34-6.59,14.55-1.25,20.58Zm46.21,21.39c2.13,2.41,1.91,6.1-.5,8.23-2.41,2.13-6.1,1.91-8.23-.5-2.14-2.41-1.91-6.1.5-8.23,2.41-2.13,6.09-1.91,8.23.5Zm-30.93-34.92c2.13,2.41,1.91,6.1-.5,8.23-2.41,2.13-6.1,1.91-8.23-.5-2.14-2.41-1.91-6.1.5-8.23,2.41-2.13,6.09-1.91,8.23.5Z"/>
    <path d="m657.11,448.22c2.67-.24,5.37-.17,8.05.22,2.68.39,5.28,1.09,7.78,2.08-1.36-3.03-1.9-6.47-1.38-9.99.51-3.52,2.01-6.66,4.17-9.18-2.67.24-5.37.17-8.05-.22-2.68-.39-5.28-1.09-7.78-2.08,1.36,3.03,1.9,6.47,1.38,9.99-.51,3.52-2.01,6.66-4.17,9.18Z"/>
    <path d="m582.36,450.32c-2.64-.44-5.34-.57-8.04-.39l-1.21-17.45c2.7-.19,5.35-.69,7.91-1.49-1.58,2.92-2.38,6.3-2.13,9.86s1.5,6.8,3.47,9.47Z"/>
    <path d="m748.6,462.61c2.68-.06,5.37.18,8.02.74,2.65.56,5.2,1.43,7.63,2.58-1.16-3.11-1.47-6.58-.73-10.06.74-3.48,2.44-6.52,4.76-8.89-2.68.06-5.37-.18-8.02-.74-2.65-.56-5.2-1.43-7.63-2.58,1.16,3.11,1.47,6.58.73,10.06-.74,3.48-2.44,6.52-4.76,8.89Z"/>
    <path d="m597.99,454.14c2.45-.17,4.72-.94,6.68-2.15,4.89-3.04,10.44-4.87,16.19-5.27,2.87-.2,5.75-.03,8.56.47,2.81.5,5.57,1.35,8.2,2.52,2.1.94,4.46,1.38,6.91,1.21,8.03-.56,14.09-7.52,13.53-15.55-.56-8.03-7.51-14.09-15.55-13.54-2.46.17-4.73.94-6.68,2.15-4.89,3.04-10.44,4.87-16.19,5.27-2.88.2-5.75.03-8.56-.47-2.81-.5-5.57-1.35-8.2-2.52-2.1-.94-4.46-1.38-6.91-1.21-8.03.56-14.09,7.52-13.54,15.55.56,8.03,7.51,14.09,15.55,13.54Zm45.13-23.58c3.21-.22,6,2.2,6.22,5.41.22,3.21-2.2,6-5.41,6.22-3.21.22-6-2.2-6.22-5.41-.22-3.21,2.2-6,5.41-6.22Zm-46.54,3.22c3.21-.22,6,2.2,6.22,5.41s-2.2,6-5.41,6.22c-3.21.22-6-2.2-6.22-5.41s2.2-6,5.41-6.22Z"/>
    <path d="m687.4,457.57c2.43.35,4.82.09,6.98-.69,5.42-1.93,11.23-2.55,16.94-1.72,2.85.41,5.62,1.18,8.27,2.28,2.64,1.09,5.15,2.5,7.48,4.2,1.85,1.36,4.06,2.3,6.5,2.65,7.97,1.16,15.36-4.36,16.52-12.33,1.16-7.97-4.36-15.37-12.32-16.52-2.44-.35-4.82-.09-6.98.69-5.43,1.93-11.24,2.55-16.94,1.72-2.85-.42-5.63-1.19-8.27-2.28-2.64-1.09-5.16-2.5-7.48-4.2-1.86-1.36-4.07-2.3-6.5-2.65-7.97-1.16-15.37,4.36-16.52,12.33-1.16,7.97,4.36,15.37,12.33,16.52Zm49.1-13.48c3.19.46,5.39,3.42,4.93,6.61s-3.42,5.39-6.61,4.93-5.39-3.42-4.93-6.61c.46-3.19,3.42-5.39,6.61-4.93Zm-46.16-6.72c3.19.46,5.39,3.42,4.93,6.61-.46,3.19-3.42,5.39-6.61,4.93-3.19-.46-5.39-3.42-4.93-6.61s3.42-5.39,6.61-4.93Z"/>
    <path d="m768.39,467.72c1.41,2.01,3.24,3.56,5.3,4.6,5.13,2.62,9.57,6.41,12.88,11.13,1.66,2.36,3,4.9,4.02,7.57,1.02,2.67,1.72,5.46,2.08,8.32.28,2.28,1.12,4.53,2.53,6.54,4.63,6.59,13.72,8.17,20.31,3.55s8.18-13.72,3.55-20.31c-1.42-2.01-3.25-3.56-5.3-4.6-5.13-2.62-9.57-6.42-12.88-11.13-1.66-2.36-3-4.9-4.02-7.57-1.02-2.67-1.72-5.47-2.08-8.32-.29-2.28-1.12-4.53-2.53-6.54-4.63-6.59-13.72-8.18-20.31-3.55-6.59,4.63-8.18,13.72-3.55,20.31Zm43.51,26.44c1.85,2.64,1.21,6.27-1.42,8.12-2.64,1.85-6.27,1.21-8.12-1.42s-1.21-6.27,1.42-8.12c2.64-1.85,6.27-1.22,8.12,1.42Zm-26.81-38.17c1.85,2.64,1.21,6.27-1.42,8.12s-6.27,1.21-8.12-1.42c-1.85-2.64-1.21-6.27,1.42-8.12,2.64-1.85,6.27-1.22,8.12,1.42Z"/>
    <path d="m388.23,497.81c2.35-1.29,4.85-2.32,7.46-3.04,2.61-.72,5.28-1.13,7.96-1.23-2.46-2.23-4.34-5.16-5.29-8.59-.95-3.43-.84-6.91.12-10.08-2.35,1.29-4.85,2.32-7.46,3.04s-5.28,1.13-7.96,1.23c2.46,2.23,4.34,5.16,5.29,8.59.95,3.43.84,6.91-.12,10.08Z"/>
    <path d="m320.33,529.36c-2.6.64-5.14,1.57-7.55,2.8l-7.96-15.58c2.41-1.23,4.65-2.74,6.69-4.47-.31,3.3.28,6.73,1.9,9.9,1.62,3.17,4.05,5.66,6.91,7.35Z"/>
    <path d="m478.15,472.94c2.35-1.29,4.85-2.32,7.46-3.04,2.61-.72,5.28-1.13,7.96-1.23-2.46-2.23-4.34-5.16-5.29-8.59-.95-3.43-.84-6.91.12-10.08-2.35,1.29-4.85,2.32-7.46,3.04s-5.28,1.13-7.96,1.23c2.46,2.23,4.34,5.16,5.29,8.59.95,3.43.84,6.91-.12,10.08Z"/>
    <path d="m566.41,451.42c2.56-.8,5.21-1.3,7.91-1.49l-1.21-17.45c-2.7.19-5.4.05-8.04-.39,1.97,2.67,3.22,5.92,3.47,9.47.25,3.55-.55,6.94-2.13,9.86Z"/>
    <path d="m336.21,526.75c2.19-1.12,3.98-2.72,5.3-4.6,3.31-4.72,7.69-8.58,12.82-11.2,2.56-1.31,5.27-2.28,8.06-2.92,2.78-.64,5.65-.94,8.53-.9,2.3.04,4.64-.48,6.83-1.6,7.17-3.66,10.01-12.44,6.35-19.61-3.66-7.17-12.44-10.02-19.61-6.35-2.19,1.12-3.98,2.72-5.3,4.6-3.31,4.72-7.69,8.58-12.82,11.2-2.57,1.31-5.27,2.29-8.06,2.92-2.79.64-5.65.94-8.53.9-2.3-.04-4.65.48-6.83,1.6-7.17,3.66-10.01,12.44-6.35,19.61,3.66,7.17,12.44,10.02,19.61,6.35Zm32.26-39.39c2.87-1.46,6.38-.33,7.85,2.54s.33,6.38-2.54,7.85c-2.87,1.46-6.38.33-7.85-2.54s-.33-6.38,2.54-7.85Zm-41.54,21.22c2.87-1.46,6.38-.33,7.85,2.54,1.46,2.87.33,6.38-2.54,7.85-2.87,1.46-6.38.33-7.85-2.54-1.46-2.87-.33-6.38,2.54-7.85Z"/>
    <path d="m419.72,494.18c2.37-.66,4.44-1.86,6.12-3.44,4.19-3.95,9.26-6.86,14.81-8.4,2.78-.77,5.62-1.18,8.48-1.24,2.86-.07,5.72.22,8.54.84,2.25.5,4.64.47,7.02-.19,7.76-2.15,12.31-10.18,10.16-17.94-2.15-7.76-10.17-12.31-17.93-10.16-2.37.66-4.45,1.86-6.12,3.44-4.19,3.96-9.26,6.86-14.81,8.4-2.78.77-5.63,1.18-8.48,1.24-2.86.07-5.73-.21-8.54-.84-2.25-.5-4.65-.47-7.02.19-7.76,2.15-12.31,10.18-10.16,17.94,2.15,7.76,10.17,12.31,17.94,10.16Zm39.52-32.1c3.1-.86,6.32.96,7.17,4.07s-.96,6.32-4.07,7.17-6.32-.96-7.17-4.07.96-6.32,4.07-7.17Zm-44.96,12.44c3.1-.86,6.32.96,7.17,4.07s-.96,6.32-4.07,7.17-6.32-.96-7.17-4.07c-.86-3.1.96-6.32,4.07-7.17Z"/>
    <path d="m509.64,469.3c2.37-.66,4.44-1.86,6.12-3.44,4.19-3.95,9.26-6.86,14.81-8.4,2.78-.77,5.62-1.18,8.48-1.24,2.86-.07,5.72.22,8.54.84,2.25.5,4.64.47,7.02-.19,7.76-2.15,12.31-10.18,10.16-17.94-2.15-7.76-10.17-12.31-17.93-10.16-2.37.66-4.45,1.86-6.12,3.44-4.19,3.96-9.26,6.86-14.81,8.4-2.78.77-5.63,1.18-8.48,1.24-2.86.07-5.73-.21-8.54-.84-2.25-.5-4.65-.47-7.02.19-7.76,2.15-12.31,10.18-10.16,17.94,2.15,7.76,10.17,12.31,17.94,10.16Zm39.52-32.11c3.1-.86,6.32.96,7.17,4.07.86,3.1-.96,6.32-4.07,7.17-3.11.86-6.32-.96-7.17-4.07s.96-6.32,4.07-7.17Zm-44.96,12.44c3.1-.86,6.32.96,7.17,4.07s-.96,6.32-4.07,7.17c-3.11.86-6.32-.96-7.17-4.07s.96-6.32,4.07-7.17Z"/>
    <path d="m173.3,657.57c1.1-2.44,2.49-4.76,4.14-6.9,1.65-2.14,3.54-4.07,5.63-5.76-3.3-.3-6.57-1.52-9.38-3.69s-4.82-5.02-5.95-8.14c-1.1,2.44-2.49,4.76-4.14,6.9-1.65,2.14-3.54,4.07-5.63,5.76,3.3.3,6.57,1.52,9.38,3.69,2.82,2.17,4.82,5.02,5.95,8.14Z"/>
    <path d="m151.19,725.99c-1.24,2.38-2.2,4.9-2.86,7.53l-16.97-4.26c.66-2.62,1-5.3,1.04-7.98,2.28,2.41,5.26,4.22,8.71,5.08,3.45.87,6.93.68,10.08-.36Z"/>
    <path d="m230.98,588.85c1.74-2.04,3.71-3.89,5.89-5.49s4.53-2.93,7-3.97c-3.09-1.21-5.89-3.28-8-6.15-2.11-2.87-3.24-6.16-3.47-9.47-1.74,2.04-3.71,3.89-5.89,5.49s-4.53,2.93-7,3.97c3.09,1.21,5.89,3.28,8,6.15,2.11,2.87,3.24,6.16,3.47,9.47Z"/>
    <path d="m306.09,536.64c2.04-1.74,4.28-3.24,6.69-4.47l-7.96-15.58c-2.41,1.23-4.94,2.16-7.55,2.8,2.86,1.69,5.29,4.18,6.91,7.35,1.62,3.17,2.21,6.6,1.9,9.9Z"/>
    <path d="m159.67,712.32c.6-2.38.57-4.78.02-7.02-1.37-5.59-1.4-11.43,0-17.02.7-2.79,1.75-5.47,3.1-7.99,1.35-2.52,3.01-4.87,4.94-7.01,1.54-1.71,2.7-3.81,3.3-6.2,1.96-7.81-2.78-15.73-10.59-17.69-7.81-1.96-15.73,2.78-17.69,10.58-.6,2.39-.57,4.79-.02,7.02,1.37,5.6,1.4,11.44,0,17.02-.7,2.8-1.75,5.48-3.1,7.99-1.35,2.52-3.01,4.88-4.94,7.01-1.54,1.71-2.7,3.81-3.3,6.2-1.96,7.81,2.78,15.73,10.59,17.69,7.81,1.96,15.73-2.78,17.69-10.59Zm-8.43-50.21c.78-3.12,3.95-5.02,7.08-4.23s5.02,3.95,4.23,7.08-3.95,5.02-7.08,4.23c-3.12-.78-5.02-3.95-4.23-7.08Zm-11.36,45.24c.78-3.12,3.95-5.02,7.08-4.23,3.12.78,5.02,3.95,4.23,7.08s-3.95,5.02-7.08,4.23-5.02-3.95-4.23-7.08Z"/>
    <path d="m196.31,635.76c1.5-1.95,2.44-4.16,2.83-6.42.97-5.68,3.29-11.04,6.81-15.6,1.76-2.28,3.79-4.32,6.04-6.09,2.24-1.77,4.71-3.26,7.33-4.46,2.09-.95,3.99-2.41,5.5-4.36,4.92-6.37,3.74-15.53-2.64-20.44-6.37-4.92-15.53-3.74-20.44,2.63-1.5,1.95-2.44,4.16-2.83,6.42-.98,5.68-3.29,11.04-6.81,15.6-1.76,2.28-3.79,4.32-6.04,6.09-2.25,1.77-4.71,3.27-7.33,4.46-2.1.95-4,2.42-5.5,4.36-4.92,6.38-3.74,15.53,2.64,20.45,6.37,4.92,15.53,3.74,20.45-2.64Zm12.34-49.4c1.97-2.55,5.63-3.02,8.18-1.05,2.55,1.97,3.02,5.63,1.05,8.18s-5.63,3.02-8.18,1.05-3.02-5.63-1.05-8.18Zm-28.5,36.93c1.97-2.55,5.63-3.02,8.18-1.05,2.55,1.97,3.02,5.63,1.05,8.18-1.97,2.55-5.63,3.02-8.18,1.05-2.55-1.97-3.02-5.63-1.05-8.18Z"/>
    <path d="m259.12,574.26c1.98-1.46,3.49-3.32,4.49-5.39,2.51-5.18,6.21-9.7,10.86-13.11,2.32-1.7,4.84-3.1,7.49-4.18,2.64-1.08,5.43-1.83,8.28-2.25,2.28-.33,4.51-1.21,6.49-2.67,6.49-4.76,7.88-13.89,3.12-20.38-4.76-6.49-13.89-7.89-20.38-3.12-1.98,1.46-3.49,3.32-4.49,5.39-2.51,5.19-6.21,9.7-10.86,13.11-2.32,1.71-4.84,3.1-7.49,4.18-2.65,1.08-5.43,1.84-8.28,2.25-2.28.33-4.51,1.22-6.49,2.67-6.49,4.77-7.89,13.89-3.12,20.38,4.76,6.49,13.89,7.89,20.38,3.12Zm25.52-44.06c2.6-1.91,6.25-1.35,8.15,1.25,1.91,2.6,1.35,6.25-1.25,8.15-2.6,1.91-6.25,1.35-8.15-1.25-1.91-2.6-1.35-6.24,1.25-8.15Zm-37.6,27.61c2.6-1.91,6.25-1.35,8.15,1.25s1.35,6.25-1.25,8.15c-2.6,1.91-6.25,1.35-8.15-1.25-1.91-2.6-1.35-6.24,1.25-8.15Z"/>
    <path d="m267.75,829.94c-2.65.42-5.35.53-8.04.33-2.7-.21-5.35-.73-7.9-1.55,1.56,2.93,2.33,6.32,2.06,9.87-.27,3.55-1.55,6.79-3.54,9.44,2.65-.42,5.35-.53,8.04-.33,2.7.21,5.35.73,7.9,1.55-1.56-2.93-2.33-6.32-2.06-9.87.27-3.55,1.55-6.79,3.54-9.44Z"/>
    <path d="m343.06,833.06c2.66.33,5.36.36,8.05.07l1.89,17.39c-2.69.29-5.32.9-7.85,1.8,1.47-2.98,2.13-6.39,1.74-9.93s-1.77-6.73-3.84-9.33Z"/>
    <path d="m184.23,806.23c-2.49-.99-4.87-2.26-7.09-3.81-2.22-1.55-4.23-3.35-6.01-5.35-.15,3.32-1.21,6.63-3.25,9.55-2.04,2.92-4.79,5.05-7.85,6.33,2.49.99,4.87,2.26,7.09,3.81,2.22,1.55,4.23,3.35,6.01,5.35.15-3.32,1.21-6.63,3.25-9.55,2.04-2.92,4.79-5.05,7.85-6.33Z"/>
    <path d="m147.3,741.5c.04-2.68.38-5.36,1.04-7.98l-16.97-4.26c-.66,2.62-1.62,5.15-2.86,7.53,3.15-1.04,6.63-1.23,10.08-.36,3.45.87,6.43,2.68,8.71,5.08Z"/>
    <path d="m329.92,829.78c-2.45-.19-4.81.24-6.92,1.16-5.28,2.3-11.03,3.31-16.78,2.87-2.87-.22-5.69-.8-8.4-1.71-2.71-.91-5.31-2.14-7.75-3.68-1.94-1.23-4.21-2.01-6.66-2.2-8.03-.61-15.03,5.4-15.64,13.43-.61,8.03,5.4,15.03,13.42,15.64,2.45.19,4.81-.24,6.92-1.16,5.28-2.3,11.04-3.31,16.78-2.87,2.87.22,5.69.8,8.4,1.71,2.71.91,5.31,2.14,7.75,3.68,1.95,1.23,4.21,2.01,6.66,2.2,8.03.61,15.03-5.4,15.64-13.43s-5.4-15.03-13.43-15.64Zm-48.06,16.8c-3.21-.25-5.62-3.05-5.37-6.26.25-3.21,3.05-5.62,6.26-5.37,3.21.25,5.62,3.05,5.37,6.26-.25,3.21-3.05,5.62-6.26,5.37Zm46.51,3.55c-3.21-.25-5.62-3.05-5.37-6.26.25-3.21,3.05-5.62,6.26-5.37,3.21.25,5.62,3.05,5.37,6.26-.25,3.21-3.05,5.62-6.26,5.37Z"/>
    <path d="m240.24,823.34c-2.34-.76-4.73-.9-7-.5-5.67.99-11.5.62-16.98-1.16-2.74-.89-5.34-2.12-7.76-3.64-2.42-1.52-4.66-3.34-6.66-5.4-1.6-1.65-3.62-2.95-5.96-3.71-7.66-2.49-15.88,1.7-18.37,9.36-2.49,7.66,1.7,15.88,9.35,18.37,2.34.76,4.74.9,7,.5,5.68-.99,11.51-.62,16.98,1.16,2.74.89,5.34,2.12,7.76,3.64,2.42,1.52,4.66,3.34,6.66,5.4,1.6,1.65,3.62,2.95,5.96,3.71,7.66,2.49,15.88-1.7,18.37-9.36,2.49-7.66-1.7-15.88-9.36-18.37Zm-50.67,4.99c-3.06-1-4.74-4.29-3.74-7.35,1-3.06,4.29-4.74,7.35-3.74,3.06,1,4.74,4.29,3.74,7.35-1,3.06-4.29,4.74-7.35,3.74Zm44.36,14.42c-3.06-1-4.74-4.29-3.74-7.35,1-3.06,4.29-4.74,7.35-3.74s4.74,4.29,3.74,7.35c-1,3.06-4.29,4.74-7.35,3.74Z"/>
    <path d="m165.92,790.91c-.95-2.27-2.41-4.17-4.2-5.63-4.46-3.65-7.99-8.3-10.22-13.61-1.12-2.65-1.89-5.43-2.32-8.25-.43-2.82-.52-5.7-.26-8.57.21-2.29-.13-4.66-1.08-6.93-3.12-7.42-11.67-10.9-19.09-7.78s-10.91,11.66-7.79,19.09c.95,2.27,2.41,4.17,4.2,5.63,4.46,3.65,7.99,8.31,10.22,13.61,1.12,2.66,1.89,5.43,2.32,8.25.43,2.83.52,5.71.26,8.57-.21,2.29.13,4.67,1.08,6.93,3.12,7.42,11.67,10.91,19.09,7.79,7.42-3.12,10.91-11.66,7.79-19.09Zm-36.9-35.09c-1.25-2.97.15-6.39,3.11-7.64s6.39.15,7.64,3.11c1.25,2.97-.15,6.39-3.11,7.64-2.97,1.25-6.39-.14-7.64-3.11Zm18.08,43c-1.25-2.97.15-6.39,3.11-7.64,2.97-1.25,6.39.15,7.64,3.11,1.25,2.97-.15,6.39-3.11,7.64-2.97,1.25-6.39-.14-7.64-3.11Z"/>
  </g>
  <path d="m1056.89,165.57c-2.48,1.02-5.08,1.76-7.75,2.19-2.67.43-5.37.53-8.04.33,2.2,2.49,3.74,5.61,4.3,9.12.56,3.52.07,6.96-1.25,10.01,2.48-1.02,5.08-1.76,7.75-2.19,2.67-.43,5.37-.53,8.04-.33-2.2-2.49-3.74-5.61-4.3-9.12-.56-3.52-.07-6.96,1.25-10.01Z"/>
  <path d="m1136.89,165.5c2.45,1.08,5.03,1.89,7.69,2.38l-3.19,17.2c-2.66-.49-5.36-.67-8.03-.53,2.26-2.43,3.88-5.51,4.53-9.01.65-3.5.24-6.96-1-10.04Z"/>
  <path d="m967.6,197.93c-2.08,1.69-4.36,3.14-6.8,4.31-2.44,1.17-4.99,2.05-7.61,2.62,2.82,1.75,5.19,4.3,6.73,7.51,1.54,3.21,2.06,6.65,1.67,9.95,2.08-1.69,4.36-3.14,6.8-4.31s4.99-2.05,7.61-2.62c-2.82-1.75-5.19-4.3-6.73-7.51s-2.06-6.65-1.67-9.95Z"/>
  <path d="m1119.91,157.58c-2.46.04-4.77.68-6.79,1.79-5.05,2.77-10.69,4.3-16.45,4.38-2.88.04-5.74-.28-8.52-.94-2.78-.66-5.48-1.65-8.05-2.96-2.05-1.05-4.37-1.62-6.84-1.59-8.05.12-14.48,6.74-14.36,14.79.12,8.05,6.74,14.48,14.79,14.36,2.46-.04,4.77-.68,6.79-1.79,5.05-2.77,10.69-4.3,16.45-4.38,2.88-.04,5.74.28,8.52.94,2.78.66,5.49,1.65,8.05,2.96,2.05,1.05,4.38,1.62,6.84,1.59,8.05-.12,14.48-6.74,14.36-14.79-.12-8.05-6.74-14.48-14.79-14.36Zm-46.34,21.09c-3.22.05-5.87-2.53-5.92-5.75-.05-3.22,2.53-5.87,5.75-5.92,3.22-.05,5.87,2.53,5.92,5.75.05,3.22-2.53,5.87-5.75,5.92Zm46.64-.68c-3.22.05-5.87-2.53-5.92-5.75-.05-3.22,2.53-5.87,5.75-5.92,3.22-.05,5.87,2.53,5.92,5.75.05,3.22-2.53,5.87-5.75,5.92Z"/>
  <path d="m1021.33,166.66c-2.22,1.07-4.04,2.62-5.41,4.47-3.42,4.63-7.89,8.39-13.08,10.89-2.6,1.25-5.32,2.16-8.13,2.73-2.8.57-5.67.8-8.55.69-2.3-.09-4.65.36-6.87,1.43-7.25,3.49-10.31,12.2-6.82,19.45,3.49,7.25,12.2,10.31,19.45,6.82,2.22-1.07,4.05-2.62,5.41-4.47,3.42-4.64,7.89-8.39,13.08-10.89,2.6-1.25,5.33-2.16,8.13-2.73,2.8-.57,5.67-.81,8.55-.69,2.3.09,4.66-.37,6.87-1.43,7.26-3.49,10.31-12.2,6.82-19.46-3.49-7.25-12.2-10.31-19.46-6.82Zm-33.19,38.61c-2.9,1.4-6.39.17-7.78-2.73-1.4-2.9-.17-6.39,2.73-7.78,2.9-1.4,6.39-.17,7.78,2.73,1.4,2.9.17,6.39-2.73,7.78Zm42.04-20.22c-2.9,1.4-6.39.17-7.78-2.73s-.17-6.39,2.73-7.78,6.39-.17,7.78,2.73c1.4,2.9.17,6.39-2.73,7.78Z"/>
  <path d="m937.25,207.09c-2.22,1.07-4.04,2.62-5.41,4.47-3.42,4.63-7.89,8.39-13.08,10.89-2.6,1.25-5.32,2.16-8.13,2.73-2.8.57-5.67.8-8.55.69-2.3-.09-4.65.36-6.87,1.43-7.25,3.49-10.31,12.2-6.82,19.45,3.49,7.25,12.2,10.31,19.45,6.82,2.22-1.07,4.05-2.62,5.41-4.47,3.42-4.64,7.89-8.39,13.08-10.89,2.6-1.25,5.33-2.16,8.13-2.73,2.8-.57,5.67-.81,8.55-.69,2.3.09,4.66-.37,6.87-1.43,7.26-3.49,10.31-12.2,6.82-19.46s-12.2-10.31-19.46-6.82Zm-33.19,38.61c-2.9,1.4-6.39.17-7.78-2.73s-.17-6.39,2.73-7.78c2.9-1.4,6.39-.17,7.78,2.73s.18,6.39-2.73,7.78Zm42.04-20.22c-2.9,1.4-6.39.17-7.78-2.73-1.4-2.9-.17-6.39,2.73-7.78,2.9-1.4,6.39-.17,7.78,2.73,1.4,2.9.18,6.39-2.73,7.78Z"/>
  <path d="m1171.26,340.21c1.01-2.48,2.31-4.85,3.88-7.05,1.57-2.2,3.39-4.2,5.41-5.96-3.31-.18-6.62-1.28-9.51-3.35-2.9-2.07-5-4.84-6.25-7.92-1.01,2.48-2.31,4.85-3.88,7.05s-3.39,4.2-5.41,5.96c3.31.18,6.62,1.28,9.51,3.35,2.9,2.07,5,4.84,6.25,7.92Z"/>
  <path d="m1126.31,403.1c-2.02,1.76-3.84,3.76-5.41,5.96l-14.23-10.17c1.57-2.2,2.87-4.57,3.88-7.05,1.25,3.08,3.35,5.85,6.25,7.92,2.9,2.07,6.2,3.16,9.51,3.35Z"/>
  <path d="m1206.62,249.09c-.74-2.58-1.19-5.24-1.31-7.94-.13-2.7.07-5.4.56-8.03-2.72,1.91-5.99,3.09-9.54,3.26s-6.92-.71-9.81-2.35c.74,2.58,1.19,5.24,1.31,7.94.13,2.7-.07,5.4-.56,8.03,2.72-1.91,5.99-3.09,9.54-3.26,3.56-.17,6.92.71,9.81,2.35Z"/>
  <path d="m1152.61,168.41c-2.68.13-5.37-.04-8.03-.53l-3.19,17.2c2.66.49,5.24,1.3,7.69,2.38-1.24-3.08-1.65-6.54-1-10.04.65-3.5,2.27-6.58,4.53-9.01Z"/>
  <path d="m1139.2,393.48c1.43-2,2.28-4.24,2.59-6.52.77-5.71,2.88-11.15,6.23-15.84,1.67-2.34,3.63-4.45,5.81-6.3,2.18-1.85,4.58-3.43,7.16-4.72,2.06-1.03,3.9-2.56,5.33-4.56,4.68-6.55,3.16-15.65-3.38-20.33-6.55-4.68-15.65-3.17-20.33,3.38-1.43,2-2.29,4.24-2.59,6.52-.77,5.71-2.88,11.16-6.23,15.84-1.68,2.35-3.63,4.46-5.81,6.3-2.18,1.85-4.59,3.44-7.16,4.72-2.06,1.03-3.9,2.56-5.33,4.56-4.68,6.55-3.17,15.66,3.38,20.34,6.55,4.68,15.65,3.17,20.34-3.38Zm10.52-49.82c1.87-2.62,5.51-3.23,8.13-1.35,2.62,1.87,3.23,5.51,1.35,8.13-1.87,2.62-5.51,3.23-8.13,1.35s-3.23-5.51-1.35-8.13Zm-27.13,37.95c1.87-2.62,5.51-3.23,8.13-1.35s3.23,5.51,1.35,8.13c-1.87,2.62-5.51,3.23-8.13,1.35-2.62-1.87-3.23-5.51-1.35-8.13Z"/>
  <path d="m1195.59,313.84c.82-2.32,1.02-4.71.69-6.98-.84-5.7-.31-11.52,1.62-16.95.96-2.71,2.26-5.28,3.85-7.66,1.58-2.38,3.46-4.57,5.58-6.51,1.7-1.55,3.05-3.54,3.87-5.86,2.69-7.59-1.28-15.92-8.87-18.61-7.59-2.69-15.92,1.28-18.61,8.86-.82,2.32-1.02,4.71-.69,6.98.84,5.7.31,11.52-1.62,16.95-.96,2.72-2.26,5.29-3.85,7.66-1.58,2.38-3.46,4.57-5.58,6.51-1.7,1.56-3.05,3.54-3.87,5.86-2.69,7.59,1.28,15.92,8.87,18.61,7.59,2.69,15.92-1.28,18.61-8.87Zm-3.64-50.78c1.08-3.03,4.41-4.62,7.44-3.55,3.03,1.08,4.62,4.41,3.55,7.44-1.08,3.03-4.41,4.62-7.44,3.55-3.03-1.08-4.62-4.41-3.55-7.44Zm-15.59,43.96c1.08-3.03,4.41-4.62,7.44-3.55s4.62,4.41,3.55,7.44c-1.08,3.03-4.41,4.62-7.44,3.55-3.03-1.08-4.62-4.41-3.55-7.44Z"/>
  <path d="m1206.79,208.22c-1.56-1.9-3.5-3.31-5.62-4.2-5.31-2.23-10.01-5.7-13.66-10.16-1.82-2.23-3.35-4.67-4.56-7.26-1.21-2.58-2.11-5.32-2.68-8.15-.45-2.26-1.45-4.44-3.01-6.34-5.1-6.23-14.28-7.15-20.51-2.05-6.23,5.1-7.15,14.28-2.05,20.51,1.56,1.91,3.5,3.32,5.62,4.2,5.31,2.24,10.01,5.7,13.66,10.16,1.83,2.23,3.35,4.67,4.56,7.26,1.22,2.59,2.12,5.32,2.68,8.15.45,2.26,1.45,4.44,3.01,6.34,5.1,6.23,14.28,7.15,20.51,2.05,6.23-5.1,7.15-14.28,2.05-20.51Zm-45.33-23.18c-2.04-2.49-1.67-6.17.82-8.21,2.49-2.04,6.17-1.67,8.21.82,2.04,2.49,1.67,6.17-.82,8.21-2.49,2.04-6.16,1.67-8.21-.82Zm29.54,36.11c-2.04-2.49-1.67-6.17.82-8.21s6.17-1.67,8.21.82,1.67,6.17-.82,8.21-6.16,1.67-8.21-.82Z"/>
  <path d="m973.68,539.68c1.76-2.02,3.76-3.84,5.96-5.41s4.57-2.87,7.05-3.88c-3.08-1.25-5.84-3.35-7.91-6.25-2.07-2.9-3.16-6.2-3.34-9.52-1.76,2.02-3.76,3.84-5.96,5.41-2.2,1.57-4.57,2.87-7.05,3.88,3.08,1.25,5.84,3.35,7.91,6.25s3.16,6.2,3.34,9.52Z"/>
  <path d="m907.89,583.33c-2.62.57-5.18,1.44-7.62,2.61l-7.55-15.78c2.44-1.17,4.72-2.62,6.81-4.3-.39,3.3.11,6.74,1.65,9.95,1.54,3.21,3.9,5.76,6.72,7.52Z"/>
  <path d="m1049.49,483.19c1.5-2.22,3.25-4.28,5.24-6.11,1.99-1.84,4.18-3.42,6.51-4.73-3.21-.85-6.22-2.59-8.64-5.21-2.42-2.62-3.91-5.76-4.51-9.02-1.5,2.22-3.25,4.28-5.24,6.11-1.99,1.84-4.18,3.42-6.51,4.73,3.21.85,6.22,2.59,8.64,5.21,2.42,2.62,3.91,5.76,4.51,9.02Z"/>
  <path d="m1117.01,416.11c1.01-2.48,2.31-4.85,3.88-7.05l-14.23-10.17c-1.57,2.2-3.39,4.2-5.41,5.96,3.31.18,6.62,1.28,9.51,3.35,2.9,2.07,5,4.84,6.25,7.92Z"/>
  <path d="m926.08,579.67c2-1.43,3.54-3.27,4.56-5.33,2.58-5.15,6.34-9.62,11.03-12.96,2.34-1.67,4.88-3.04,7.54-4.08,2.66-1.04,5.45-1.76,8.31-2.14,2.28-.3,4.52-1.15,6.53-2.58,6.55-4.68,8.07-13.78,3.39-20.33-4.68-6.55-13.78-8.08-20.33-3.4-2,1.43-3.54,3.27-4.56,5.33-2.58,5.15-6.34,9.62-11.03,12.96-2.35,1.67-4.88,3.04-7.54,4.08-2.66,1.04-5.45,1.76-8.31,2.14-2.28.3-4.52,1.16-6.53,2.58-6.56,4.68-8.07,13.78-3.4,20.33,4.68,6.55,13.78,8.08,20.33,3.4Zm26.11-43.71c2.62-1.87,6.26-1.26,8.13,1.36s1.26,6.26-1.36,8.13c-2.62,1.87-6.26,1.26-8.13-1.36-1.87-2.62-1.26-6.26,1.36-8.13Zm-37.97,27.1c2.62-1.87,6.26-1.26,8.13,1.36,1.87,2.62,1.26,6.26-1.36,8.13-2.62,1.87-6.26,1.26-8.13-1.36-1.87-2.62-1.26-6.26,1.36-8.13Z"/>
  <path d="m1002.02,525.47c2-1.43,3.54-3.27,4.56-5.33,2.58-5.15,6.34-9.62,11.03-12.96,2.34-1.67,4.88-3.04,7.54-4.08,2.66-1.04,5.45-1.76,8.31-2.14,2.28-.3,4.52-1.15,6.53-2.58,6.55-4.68,8.07-13.78,3.39-20.33-4.68-6.55-13.78-8.08-20.33-3.4-2,1.43-3.54,3.27-4.56,5.33-2.58,5.15-6.34,9.62-11.03,12.96-2.35,1.67-4.88,3.04-7.54,4.08-2.66,1.04-5.45,1.76-8.31,2.14-2.28.3-4.52,1.16-6.53,2.58-6.56,4.68-8.07,13.78-3.4,20.33s13.78,8.08,20.33,3.4Zm26.11-43.71c2.62-1.87,6.26-1.26,8.13,1.36s1.26,6.26-1.36,8.13c-2.62,1.87-6.26,1.26-8.13-1.36-1.87-2.62-1.26-6.26,1.36-8.13Zm-37.97,27.1c2.62-1.87,6.26-1.26,8.13,1.36,1.87,2.62,1.26,6.26-1.36,8.13-2.62,1.87-6.26,1.26-8.13-1.36-1.87-2.62-1.26-6.26,1.36-8.13Z"/>
  <path d="m1075.82,465.53c1.81-1.67,3.1-3.69,3.86-5.86,1.91-5.43,5.08-10.34,9.32-14.25,2.12-1.95,4.46-3.62,6.97-4.99,2.51-1.37,5.19-2.43,7.97-3.17,2.22-.59,4.34-1.71,6.15-3.38,5.91-5.46,6.28-14.68.82-20.6-5.46-5.91-14.68-6.28-20.6-.82-1.81,1.67-3.1,3.69-3.86,5.86-1.91,5.44-5.09,10.34-9.32,14.25-2.12,1.96-4.46,3.63-6.97,4.99-2.51,1.37-5.19,2.43-7.97,3.17-2.23.59-4.34,1.71-6.15,3.38-5.92,5.46-6.28,14.69-.82,20.6,5.46,5.91,14.68,6.28,20.6.82Zm20.42-46.64c2.37-2.18,6.06-2.04,8.24.33,2.18,2.37,2.04,6.06-.33,8.24s-6.06,2.04-8.24-.33c-2.18-2.37-2.04-6.05.33-8.24Zm-34.27,31.65c2.37-2.18,6.06-2.04,8.24.33,2.18,2.37,2.04,6.06-.33,8.24-2.37,2.19-6.06,2.04-8.24-.33-2.18-2.37-2.04-6.05.33-8.24Z"/>
  <path d="m754.28,584.17c-1.22,1.75-2.64,3.36-4.25,4.79-1.61,1.43-3.37,2.66-5.24,3.67,2.95-.49,6.92-.41,9.18,1.29,2.79,2.1,3.93,6.75,3.93,6.75,0,0,.91-.9,1.39-1.33,1.61-1.43,3.37-2.66,5.24-3.67-2.54-.72-4.91-2.15-6.79-4.26s-3.03-4.63-3.46-7.23Z"/>
  <path d="m794.69,527.67c.83-2.55,1.37-5.2,1.59-7.89l17.43,1.43c-.22,2.7-.12,5.4.28,8.05-2.65-2-5.88-3.3-9.42-3.59s-6.94.46-9.88,2.01Z"/>
  <path d="m805.06,625.05c2.39-1.21,4.93-2.14,7.56-2.77,2.63-.63,5.31-.94,8-.94-2.38-2.31-4.15-5.31-4.98-8.77-.82-3.46-.59-6.94.49-10.07-2.39,1.21-4.93,2.14-7.56,2.77-2.63.63-5.31.94-8,.94,2.38,2.31,4.15,5.31,4.98,8.77.82,3.46.59,6.94-.49,10.07Z"/>
  <path d="m893.46,590.23c2.08-1.68,4.37-3.13,6.81-4.3l-7.55-15.78c-2.44,1.17-5,2.04-7.62,2.61,2.81,1.76,5.18,4.31,6.72,7.52,1.54,3.21,2.04,6.65,1.65,9.95Z"/>
  <path d="m792.24,534.38c-1.62,1.85-2.69,4-3.21,6.24-1.32,5.61-3.95,10.82-7.74,15.16-1.89,2.17-4.05,4.08-6.4,5.71-2.35,1.63-4.9,2.97-7.59,4-2.15.82-4.13,2.17-5.75,4.02-5.3,6.06-4.67,15.27,1.39,20.57,6.06,5.3,15.27,4.68,20.57-1.38,1.62-1.85,2.69-4,3.21-6.24,1.32-5.61,3.95-10.82,7.74-15.16,1.9-2.17,4.05-4.08,6.4-5.71,2.35-1.63,4.9-2.97,7.59-4,2.15-.82,4.14-2.17,5.75-4.02,5.3-6.06,4.68-15.27-1.38-20.57-6.06-5.3-15.27-4.68-20.57,1.38Zm-15.33,48.55c-2.12,2.42-5.8,2.67-8.23.55-2.42-2.12-2.67-5.8-.55-8.23,2.12-2.42,5.8-2.67,8.23-.55s2.67,5.8.55,8.23Zm30.7-35.13c-2.12,2.42-5.8,2.67-8.23.55s-2.67-5.8-.55-8.23c2.12-2.42,5.8-2.67,8.23-.55s2.67,5.8.55,8.23Z"/>
  <path d="m739.59,626.91c2.43.36,4.82.09,6.98-.69,5.43-1.93,11.23-2.55,16.94-1.72,2.85.42,5.62,1.19,8.26,2.28,2.64,1.09,5.15,2.5,7.48,4.2,1.85,1.36,4.06,2.3,6.5,2.65,7.97,1.16,15.36-4.35,16.53-12.32,1.16-7.97-4.35-15.37-12.32-16.53-2.44-.36-4.82-.09-6.98.69-5.43,1.93-11.24,2.55-16.94,1.72-2.85-.42-5.62-1.19-8.26-2.28-2.64-1.09-5.15-2.5-7.48-4.2-1.86-1.36-4.06-2.3-6.5-2.65-7.97-1.16-15.37,4.35-16.53,12.32-1.16,7.97,4.35,15.37,12.32,16.53Zm49.1-13.46c3.19.46,5.39,3.43,4.93,6.61s-3.43,5.39-6.61,4.93c-3.19-.46-5.39-3.43-4.93-6.61s3.43-5.39,6.61-4.93Zm-46.16-6.74c3.19.46,5.39,3.43,4.93,6.61-.46,3.19-3.43,5.39-6.61,4.93-3.19-.46-5.39-3.43-4.93-6.61.46-3.19,3.43-5.39,6.61-4.93Z"/>
  <path d="m839.68,621.41c2.22-1.06,4.05-2.61,5.42-4.46,3.43-4.63,7.91-8.38,13.1-10.87,2.6-1.24,5.33-2.15,8.13-2.72,2.8-.57,5.67-.79,8.55-.68,2.3.1,4.65-.36,6.87-1.42,7.26-3.48,10.33-12.18,6.85-19.44s-12.18-10.33-19.44-6.85c-2.22,1.06-4.05,2.61-5.42,4.46-3.43,4.63-7.91,8.38-13.1,10.87-2.6,1.25-5.33,2.15-8.13,2.72-2.8.57-5.67.8-8.55.68-2.3-.09-4.66.36-6.87,1.42-7.26,3.48-10.33,12.18-6.85,19.44,3.48,7.26,12.18,10.33,19.44,6.85Zm33.26-38.55c2.9-1.39,6.39-.16,7.78,2.74,1.39,2.9.16,6.39-2.74,7.78-2.91,1.39-6.39.16-7.78-2.74-1.39-2.9-.17-6.39,2.74-7.78Zm-42.07,20.14c2.9-1.39,6.39-.16,7.78,2.74,1.39,2.9.16,6.39-2.74,7.78-2.91,1.39-6.39.16-7.78-2.74-1.39-2.9-.17-6.39,2.74-7.78Z"/>
  <path d="m824.41,160.25c-2.68.1-5.37-.1-8.03-.62-2.65-.52-5.22-1.35-7.66-2.46,1.2,3.09,1.57,6.55.89,10.05s-2.34,6.56-4.63,8.96c2.68-.1,5.37.1,8.03.62,2.65.52,5.22,1.35,7.66,2.46-1.2-3.09-1.57-6.55-.89-10.05s2.34-6.56,4.63-8.96Z"/>
  <path d="m888.34,210.95c1.18,2.41,2.64,4.68,4.36,6.77l-13.5,11.12c-1.72-2.09-3.67-3.95-5.81-5.57,3.29-.41,6.51-1.73,9.26-3.99,2.75-2.26,4.66-5.17,5.69-8.33Z"/>
  <path d="m731.66,185.64c-1.18,2.4-2.64,4.68-4.37,6.76-1.72,2.09-3.68,3.95-5.82,5.57,3.29.41,6.51,1.74,9.26,4,2.74,2.27,4.65,5.18,5.68,8.33,1.18-2.4,2.64-4.68,4.37-6.76,1.72-2.09,3.68-3.95,5.82-5.57-3.29-.41-6.51-1.74-9.26-4s-4.65-5.18-5.68-8.33Z"/>
  <path d="m881.24,194.74c-1.77-1.7-3.87-2.87-6.09-3.5-5.54-1.58-10.63-4.45-14.78-8.44-2.08-1.99-3.89-4.23-5.4-6.66-1.52-2.42-2.74-5.03-3.64-7.76-.72-2.18-1.97-4.23-3.75-5.93-5.81-5.57-15.04-5.38-20.61.43-5.57,5.81-5.38,15.04.43,20.61,1.78,1.7,3.87,2.87,6.09,3.5,5.54,1.58,10.63,4.45,14.78,8.44,2.08,2,3.89,4.23,5.4,6.66,1.52,2.42,2.74,5.03,3.64,7.76.72,2.19,1.97,4.23,3.75,5.93,5.81,5.57,15.04,5.38,20.61-.43,5.57-5.81,5.38-15.04-.43-20.61Zm-47.79-17.56c-2.32-2.23-2.4-5.92-.17-8.24,2.23-2.32,5.92-2.4,8.24-.17,2.32,2.23,2.4,5.92.17,8.24-2.23,2.32-5.92,2.4-8.24.17Zm33.67,32.29c-2.32-2.23-2.4-5.92-.17-8.24,2.23-2.32,5.92-2.4,8.24-.17,2.32,2.23,2.4,5.92.17,8.24-2.23,2.32-5.92,2.4-8.24.17Z"/>
  <path d="m786.96,149.97c-2.3.88-4.24,2.28-5.76,4.01-3.79,4.34-8.56,7.71-13.94,9.77-2.69,1.03-5.48,1.71-8.32,2.05-2.84.34-5.72.33-8.58-.01-2.28-.28-4.67-.02-6.97.86-7.52,2.88-11.28,11.31-8.4,18.83,2.88,7.52,11.31,11.28,18.82,8.4,2.3-.88,4.25-2.28,5.76-4.01,3.79-4.34,8.56-7.71,13.94-9.77,2.69-1.03,5.49-1.71,8.32-2.05,2.84-.34,5.72-.33,8.58.01,2.29.28,4.67.02,6.97-.86,7.52-2.88,11.28-11.31,8.4-18.83s-11.31-11.28-18.83-8.4Zm-36.26,35.74c-3.01,1.15-6.38-.35-7.53-3.36s.35-6.38,3.36-7.53c3.01-1.15,6.38.35,7.53,3.36,1.15,3.01-.35,6.38-3.36,7.53Zm43.56-16.68c-3.01,1.15-6.38-.35-7.53-3.36s.35-6.38,3.36-7.53,6.38.35,7.53,3.36c1.15,3.01-.35,6.38-3.36,7.53Z"/>
  <path d="m707.94,206.67c-1.57,1.9-2.57,4.07-3.04,6.33-1.16,5.64-3.65,10.93-7.32,15.37-1.83,2.22-3.93,4.19-6.24,5.88-2.3,1.69-4.81,3.1-7.47,4.21-2.13.88-4.07,2.28-5.64,4.18-5.13,6.21-4.25,15.39,1.96,20.52,6.21,5.13,15.39,4.25,20.52-1.95,1.57-1.9,2.58-4.07,3.04-6.33,1.17-5.64,3.65-10.93,7.32-15.37,1.84-2.22,3.93-4.19,6.24-5.88,2.3-1.69,4.81-3.11,7.47-4.21,2.13-.88,4.07-2.28,5.64-4.18,5.13-6.21,4.25-15.4-1.96-20.52-6.21-5.13-15.39-4.25-20.52,1.96Zm-13.97,48.96c-2.05,2.48-5.73,2.83-8.21.78-2.48-2.05-2.83-5.73-.78-8.21,2.05-2.49,5.73-2.83,8.21-.78,2.48,2.05,2.83,5.72.78,8.21Zm29.71-35.96c-2.05,2.48-5.73,2.83-8.21.78-2.48-2.05-2.83-5.73-.78-8.21,2.05-2.49,5.73-2.83,8.21-.78,2.48,2.05,2.83,5.72.78,8.21Z"/>
  <path d="m423.1,96.66c-15.2-21.09-23.64-46.98-25.1-77-.14-2.83,1.88-5.32,4.67-5.77,2.8-.45,5.49,1.27,6.25,4,7.8,28.02,26.4,47.27,58.55,60.59,28.82,11.94,64.08,17.13,98.18,22.14,60.04,8.82,116.74,17.15,129.18,61.82.82,2.96-.91,6.03-3.87,6.86-2.96.82-6.03-.91-6.86-3.87-4.71-16.91-17.79-28.79-41.16-37.38-21.84-8.03-49.57-12.1-78.91-16.41-34.77-5.11-70.73-10.39-100.83-22.87-21.07-8.73-37.16-20.24-48.53-34.79,9.63,33.47,31.25,58.56,64.59,74.81,33.37,16.27,66.6,17.2,66.93,17.21,3.07.07,5.51,2.61,5.45,5.69-.07,3.07-2.61,5.51-5.69,5.45-1.44-.03-35.69-.95-71.22-18.16-15.75-7.63-29.26-17.29-40.36-28.81.71,2.89,1.94,6.26,4.02,9.99,6.54,11.75,22.85,29.18,63.47,45.46,2.85,1.14,4.24,4.39,3.1,7.24-.67,1.68-2.07,2.85-3.68,3.29-1.14.32-2.38.28-3.56-.2-13.96-5.59-25.37-11.4-34.69-17.21,3.13,7.53,9,16.93,19.97,24.7,11.66,8.26,27.04,13.17,45.7,14.58,23.57,1.78,52.42-2.02,85.75-11.3,2.96-.82,6.03.91,6.86,3.87.82,2.96-.91,6.03-3.87,6.86-20.37,5.67-39.19,9.36-56.31,11.06,2.62,3.27,6.34,7.18,11.28,10.69,14.74,10.5,33.02,12.81,54.32,6.88,12.84-3.58,23.61-11.59,23.81-11.74,2.45-1.85,5.94-1.37,7.8,1.08,1.86,2.45,1.37,5.94-1.08,7.8-.5.38-12.54,9.41-27.54,13.59-31.07,8.65-52.09-.06-64.25-8.88-9.13-6.62-14.7-14.25-17.35-18.51-7.18.29-14.02.19-20.5-.31-20.73-1.6-37.99-7.24-51.31-16.75-21.67-15.49-26.58-36.54-27.66-43.83-30.66-25.12-26.52-48.08-25.57-51.87Z"/>
  <path d="m1476.35,83.48c14.44-21.61,21.97-47.79,22.36-77.84.04-2.84-2.06-5.25-4.88-5.6-2.81-.35-5.44,1.47-6.11,4.22-6.81,28.28-24.72,48.17-56.37,62.62-28.38,12.95-63.44,19.38-97.34,25.59-59.69,10.93-116.06,21.26-126.92,66.34-.72,2.99,1.12,6,4.11,6.72,2.99.72,6-1.12,6.72-4.11,4.11-17.07,16.76-29.4,39.81-38.81,21.55-8.79,49.11-13.84,78.28-19.19,34.57-6.33,70.32-12.88,99.96-26.41,20.75-9.47,36.43-21.54,47.27-36.48-8.44,33.79-29.17,59.63-61.91,77.05-32.77,17.44-65.95,19.54-66.28,19.56-3.07.17-5.42,2.8-5.25,5.87.17,3.07,2.8,5.42,5.87,5.25,1.44-.08,35.63-2.21,70.54-20.67,15.47-8.18,28.64-18.31,39.32-30.21-.61,2.91-1.72,6.33-3.66,10.13-6.12,11.97-21.81,29.97-61.83,47.67-2.81,1.24-4.08,4.53-2.84,7.35.73,1.65,2.16,2.77,3.79,3.16,1.15.28,2.39.19,3.55-.32,13.75-6.08,24.95-12.29,34.06-18.43-2.87,7.64-8.4,17.23-19.09,25.39-11.36,8.67-26.56,14.11-45.16,16.18-23.49,2.61-52.46-.17-86.1-8.27-2.99-.72-6,1.12-6.72,4.11-.72,2.99,1.12,6,4.11,6.72,20.56,4.95,39.5,7.97,56.66,9.06-2.5,3.36-6.09,7.4-10.9,11.09-14.36,11.01-32.54,13.97-54.05,8.79-12.96-3.12-24.01-10.75-24.21-10.89-2.52-1.77-5.99-1.16-7.76,1.36-1.77,2.52-1.16,5.99,1.35,7.76.52.36,12.86,8.96,28,12.61,31.35,7.55,52.05-1.89,63.9-11.14,8.89-6.94,14.19-14.76,16.69-19.11,7.19.04,14.02-.31,20.48-1.03,20.66-2.33,37.71-8.57,50.69-18.55,21.11-16.24,25.28-37.46,26.1-44.78,29.75-26.19,24.81-48.99,23.72-52.74Z"/>
  <g>
    <path d="m806.78,379.4v-58.36l-3.5,8.75-18.09,36.77-9.34.58-18.09-37.93-2.92-8.17v58.36l11.09,2.33v7h-31.51v-7l9.92-2.33v-63.03l-9.92-2.33v-6.42l26.26-.58,21.13,46.69,22.06-46.1,24.51-.58v7l-9.92,2.33v63.03l9.92,2.33v7h-32.68v-7l11.09-2.33Z"/>
    <path d="m845.87,388.73v-7l11.67-2.33v-63.03h-15.17l-2.92,11.67h-7.59v-21.01h63.61v21.01h-7.59l-2.92-11.67h-15.17v63.03l11.67,2.33v7h-35.6Z"/>
    <path d="m910.88,379.4v-63.03l-9.92-2.33v-6.42l21.94-.58h13.42c14.59,0,25.09,6.42,25.09,20.43,0,10.51-5.37,16.46-15.17,18.91,12.26,2.8,18.09,9.69,18.09,19.03,0,16.34-10.51,23.34-29.76,23.34h-33.61v-7l9.92-2.33Zm20.78-37.35c10.51,0,17.51-4.09,17.51-13.42,0-8.17-5.84-12.26-13.42-12.26h-12.84v25.68h8.75Zm3.5,37.35c11.09,0,16.92-4.67,16.92-13.42,0-11.67-7.59-15.17-20.43-15.17h-8.75v28.6h12.26Z"/>
  </g>
</svg>